# This file uses centimeters as units for non-parametric coordinates.

v 26.500000 1.000000 0.000000
v 27.500000 1.000000 0.000000
v 28.500000 1.000000 0.000000
v 26.500000 1.000000 -1.000000
v 27.500000 1.000000 -1.000000
v 28.500000 1.000000 -1.000000
v 26.500000 1.000000 -2.000000
v 27.500000 1.000000 -2.000000
v 28.500000 1.000000 -2.000000
v 26.500000 0.000000 -2.000000
v 27.500000 0.000000 -2.000000
v 28.500000 0.000000 -2.000000
v 26.500000 0.000000 -1.000000
v 27.500000 0.000000 -1.000000
v 28.500000 0.000000 -1.000000
v 26.500000 0.000000 0.000000
v 27.500000 0.000000 0.000000
v 28.500000 0.000000 0.000000
vt 0.419098 0.915488
vt 0.431098 0.915488
vt 0.431098 0.927488
vt 0.419098 0.927488
vt 0.443098 0.915488
vt 0.443098 0.927488
vt 0.431098 0.939488
vt 0.419098 0.939488
vt 0.443098 0.939488
vt 0.419098 0.756136
vt 0.431098 0.756136
vt 0.431098 0.768136
vt 0.419098 0.768136
vt 0.443098 0.756135
vt 0.443098 0.768136
vt 0.431098 0.780136
vt 0.419098 0.780136
vt 0.443098 0.780136
vt 0.431098 0.792136
vt 0.419098 0.792136
vt 0.438220 0.661572
vt 0.438220 0.675316
vt 0.424473 0.675316
vt 0.424473 0.661572
vt 0.438220 0.689059
vt 0.424473 0.689059
vt 0.419098 0.744136
vt 0.431098 0.744136
vt 0.443098 0.744135
vt 0.436770 0.701291
vt 0.436770 0.714072
vt 0.423989 0.714072
vt 0.423989 0.701291
vt 0.436770 0.726853
vt 0.423989 0.726853
vt 0.443098 0.792136
vn 0.000000 1.000000 0.000000
vn 0.000000 1.000000 0.000000
vn 0.000000 1.000000 0.000000
vn 0.000000 1.000000 0.000000
vn 0.000000 1.000000 0.000000
vn 0.000000 1.000000 0.000000
vn 0.000000 1.000000 0.000000
vn 0.000000 1.000000 0.000000
vn 0.000000 1.000000 0.000000
vn 0.000000 -1.000000 0.000000
vn 0.000000 -1.000000 0.000000
vn 0.000000 -1.000000 0.000000
vn 0.000000 -1.000000 0.000000
vn 0.000000 -1.000000 0.000000
vn 0.000000 -1.000000 0.000000
vn 0.000000 -1.000000 0.000000
vn 0.000000 -1.000000 0.000000
vn 0.000000 -1.000000 0.000000
vn 0.000000 0.000000 1.000000
vn 0.000000 0.000000 1.000000
vn 0.000000 0.000000 1.000000
vn 0.000000 0.000000 1.000000
vn -1.000000 0.000000 0.000000
vn -1.000000 0.000000 0.000000
vn -1.000000 0.000000 0.000000
vn -1.000000 0.000000 0.000000
vn -1.000000 0.000000 0.000000
vn -1.000000 0.000000 0.000000
vn -1.000000 0.000000 0.000000
vn -1.000000 0.000000 0.000000
vn 0.000000 0.000000 -1.000000
vn 0.000000 0.000000 -1.000000
vn 0.000000 0.000000 -1.000000
vn 0.000000 0.000000 -1.000000
vn 0.000000 0.000000 -1.000000
vn 0.000000 0.000000 -1.000000
vn 0.000000 0.000000 -1.000000
vn 0.000000 0.000000 -1.000000
vn 1.000000 0.000000 0.000000
vn 1.000000 0.000000 0.000000
vn 1.000000 0.000000 0.000000
vn 1.000000 0.000000 0.000000
vn 1.000000 0.000000 0.000000
vn 1.000000 0.000000 0.000000
vn 1.000000 0.000000 0.000000
vn 1.000000 0.000000 0.000000
vn 0.000000 0.000000 1.000000
vn 0.000000 0.000000 1.000000
vn 0.000000 0.000000 1.000000
vn 0.000000 0.000000 1.000000
f 1/1/1 2/2/2 5/3/3 4/4/4
f 2/2/2 3/5/5 6/6/6 5/3/3
f 4/4/4 5/3/3 8/7/7 7/8/8
f 5/3/3 6/6/6 9/9/9 8/7/7
f 10/10/10 11/11/11 14/12/12 13/13/13
f 11/11/11 12/14/14 15/15/15 14/12/12
f 13/13/13 14/12/12 17/16/16 16/17/17
f 14/12/12 15/15/15 18/18/18 17/16/16
f 2/19/19 1/20/20 16/17/21 17/16/22
f 1/21/23 4/22/24 13/23/25 16/24/26
f 4/22/27 7/25/28 10/26/29 13/23/30
f 7/27/31 8/28/32 11/11/33 10/10/34
f 8/28/35 9/29/36 12/14/37 11/11/38
f 9/30/39 6/31/40 15/32/41 12/33/42
f 6/31/43 3/34/44 18/35/45 15/32/46
f 3/36/47 2/19/48 17/16/49 18/18/50
