# This file uses centimeters as units for non-parametric coordinates.

v 8.500000 0.000000 -1.000000
v 9.500000 0.000000 -1.000000
v 10.500000 0.000000 -1.000000
v 8.500000 0.000000 -2.000000
v 9.500000 0.000000 -2.000000
v 10.500000 0.000000 -2.000000
v 8.500000 0.000000 -3.000000
v 9.500000 0.000000 -3.000000
v 10.500000 0.000000 -3.000000
v 8.500000 -1.000000 -3.000000
v 9.500000 -1.000000 -3.000000
v 10.500000 -1.000000 -3.000000
v 8.500000 -1.000000 -2.000000
v 9.500000 -1.000000 -2.000000
v 10.500000 -1.000000 -2.000000
v 8.500000 -1.000000 -1.000000
v 9.500000 -1.000000 -1.000000
v 10.500000 -1.000000 -1.000000
vt 0.203098 0.927488
vt 0.215098 0.927488
vt 0.215098 0.939488
vt 0.203098 0.939488
vt 0.227098 0.927488
vt 0.227098 0.939488
vt 0.215098 0.951488
vt 0.203098 0.951488
vt 0.227098 0.951488
vt 0.203098 0.732136
vt 0.215098 0.732136
vt 0.215098 0.744136
vt 0.203098 0.744136
vt 0.227098 0.732136
vt 0.227098 0.744136
vt 0.215098 0.756136
vt 0.203098 0.756136
vt 0.227098 0.756136
vt 0.215098 0.768136
vt 0.203098 0.768136
vt 0.227098 0.768136
vt 0.222797 0.646470
vt 0.222797 0.659251
vt 0.210016 0.659251
vt 0.210016 0.646470
vt 0.222797 0.672032
vt 0.210016 0.672032
vt 0.227098 0.780136
vt 0.215098 0.780136
vt 0.203098 0.780136
vt 0.223281 0.601998
vt 0.223281 0.615742
vt 0.209534 0.615742
vt 0.209534 0.601998
vt 0.223281 0.629485
vt 0.209534 0.629485
vn 0.000000 1.000000 0.000000
vn 0.000000 1.000000 0.000000
vn 0.000000 1.000000 0.000000
vn 0.000000 1.000000 0.000000
vn 0.000000 1.000000 0.000000
vn 0.000000 1.000000 0.000000
vn 0.000000 1.000000 0.000000
vn 0.000000 1.000000 0.000000
vn 0.000000 1.000000 0.000000
vn 0.000000 0.000000 -1.000000
vn 0.000000 0.000000 -1.000000
vn 0.000000 0.000000 -1.000000
vn 0.000000 0.000000 -1.000000
vn 0.000000 0.000000 -1.000000
vn 0.000000 0.000000 -1.000000
vn 0.000000 -1.000000 0.000000
vn 0.000000 -1.000000 0.000000
vn 0.000000 -1.000000 0.000000
vn 0.000000 -1.000000 0.000000
vn 0.000000 -1.000000 0.000000
vn 0.000000 -1.000000 0.000000
vn 0.000000 -1.000000 0.000000
vn 0.000000 -1.000000 0.000000
vn 0.000000 -1.000000 0.000000
vn 1.000000 0.000000 0.000000
vn 1.000000 0.000000 0.000000
vn 1.000000 0.000000 0.000000
vn 1.000000 0.000000 0.000000
vn 1.000000 0.000000 0.000000
vn 1.000000 0.000000 0.000000
vn 1.000000 0.000000 0.000000
vn 1.000000 0.000000 0.000000
vn 0.000000 0.000000 1.000000
vn 0.000000 0.000000 1.000000
vn 0.000000 0.000000 1.000000
vn 0.000000 0.000000 1.000000
vn 0.000000 0.000000 1.000000
vn 0.000000 0.000000 1.000000
vn 0.000000 0.000000 1.000000
vn 0.000000 0.000000 1.000000
vn -1.000000 0.000000 0.000000
vn -1.000000 0.000000 0.000000
vn -1.000000 0.000000 0.000000
vn -1.000000 0.000000 0.000000
vn -1.000000 0.000000 0.000000
vn -1.000000 0.000000 0.000000
vn -1.000000 0.000000 0.000000
vn -1.000000 0.000000 0.000000
f 1/1/1 2/2/2 5/3/3 4/4/4
f 2/2/2 3/5/5 6/6/6 5/3/3
f 4/4/4 5/3/3 8/7/7 7/8/8
f 5/3/3 6/6/6 9/9/9 8/7/7
f 7/10/10 8/11/11 11/12/12 10/13/13
f 8/11/11 9/14/14 12/15/15 11/12/12
f 10/13/16 11/12/17 14/16/18 13/17/19
f 11/12/17 12/15/20 15/18/21 14/16/18
f 13/17/19 14/16/18 17/19/22 16/20/23
f 14/16/18 15/18/21 18/21/24 17/19/22
f 9/22/25 6/23/26 15/24/27 12/25/28
f 6/23/29 3/26/30 18/27/31 15/24/32
f 3/28/33 2/29/34 17/19/35 18/21/36
f 2/29/37 1/30/38 16/20/39 17/19/40
f 1/31/41 4/32/42 13/33/43 16/34/44
f 4/32/45 7/35/46 10/36/47 13/33/48
