# This file uses centimeters as units for non-parametric coordinates.

v 36.500000 0.000000 3.000000
v 37.500000 0.000000 3.000000
v 38.500000 0.000000 3.000000
v 36.500000 1.000000 3.000000
v 37.500000 1.000000 3.000000
v 38.500000 1.000000 3.000000
v 36.500000 1.000000 2.000000
v 37.500000 1.000000 2.000000
v 38.500000 1.000000 2.000000
v 36.500000 1.000000 1.000000
v 37.500000 1.000000 1.000000
v 38.500000 1.000000 1.000000
v 36.500000 0.000000 1.000000
v 37.500000 0.000000 1.000000
v 38.500000 0.000000 1.000000
v 36.500000 0.000000 2.000000
v 37.500000 0.000000 2.000000
v 38.500000 0.000000 2.000000
vt 0.539098 0.879488
vt 0.551098 0.879488
vt 0.551098 0.891488
vt 0.539098 0.891488
vt 0.563098 0.879488
vt 0.563098 0.891488
vt 0.551098 0.903488
vt 0.539098 0.903488
vt 0.563098 0.903488
vt 0.539098 0.792136
vt 0.551098 0.792136
vt 0.551098 0.804136
vt 0.539098 0.804136
vt 0.563098 0.792135
vt 0.563098 0.804136
vt 0.551098 0.816136
vt 0.539098 0.816136
vt 0.563098 0.816136
vt 0.563098 0.828136
vt 0.551098 0.828136
vt 0.552079 0.728281
vt 0.552079 0.715500
vt 0.564860 0.715500
vt 0.564860 0.728281
vt 0.552079 0.702719
vt 0.564860 0.702719
vt 0.551098 0.780136
vt 0.563098 0.780135
vt 0.539098 0.780136
vt 0.554042 0.685401
vt 0.554042 0.671658
vt 0.567789 0.671658
vt 0.567789 0.685401
vt 0.554042 0.657914
vt 0.567789 0.657914
vt 0.539098 0.828136
vn 0.000000 1.000000 0.000000
vn 0.000000 1.000000 0.000000
vn 0.000000 1.000000 0.000000
vn 0.000000 1.000000 0.000000
vn 0.000000 1.000000 0.000000
vn 0.000000 1.000000 0.000000
vn 0.000000 1.000000 0.000000
vn 0.000000 1.000000 0.000000
vn 0.000000 1.000000 0.000000
vn 0.000000 -1.000000 0.000000
vn 0.000000 -1.000000 0.000000
vn 0.000000 -1.000000 0.000000
vn 0.000000 -1.000000 0.000000
vn 0.000000 -1.000000 0.000000
vn 0.000000 -1.000000 0.000000
vn 0.000000 -1.000000 0.000000
vn 0.000000 -1.000000 0.000000
vn 0.000000 -1.000000 0.000000
vn 0.000000 0.000000 1.000000
vn 0.000000 0.000000 1.000000
vn 0.000000 0.000000 1.000000
vn 0.000000 0.000000 1.000000
vn 1.000000 0.000000 0.000000
vn 1.000000 0.000000 0.000000
vn 1.000000 0.000000 0.000000
vn 1.000000 0.000000 0.000000
vn 1.000000 0.000000 0.000000
vn 1.000000 0.000000 0.000000
vn 1.000000 0.000000 0.000000
vn 1.000000 0.000000 0.000000
vn 0.000000 0.000000 -1.000000
vn 0.000000 0.000000 -1.000000
vn 0.000000 0.000000 -1.000000
vn 0.000000 0.000000 -1.000000
vn 0.000000 0.000000 -1.000000
vn 0.000000 0.000000 -1.000000
vn 0.000000 0.000000 -1.000000
vn 0.000000 0.000000 -1.000000
vn -1.000000 0.000000 0.000000
vn -1.000000 0.000000 0.000000
vn -1.000000 0.000000 0.000000
vn -1.000000 0.000000 0.000000
vn -1.000000 0.000000 0.000000
vn -1.000000 0.000000 0.000000
vn -1.000000 0.000000 0.000000
vn -1.000000 0.000000 0.000000
vn 0.000000 0.000000 1.000000
vn 0.000000 0.000000 1.000000
vn 0.000000 0.000000 1.000000
vn 0.000000 0.000000 1.000000
f 4/1/1 5/2/2 8/3/3 7/4/4
f 5/2/2 6/5/5 9/6/6 8/3/3
f 7/4/4 8/3/3 11/7/7 10/8/8
f 8/3/3 9/6/6 12/9/9 11/7/7
f 13/10/10 14/11/11 17/12/12 16/13/13
f 14/11/11 15/14/14 18/15/15 17/12/12
f 16/13/13 17/12/12 2/16/16 1/17/17
f 17/12/12 18/15/15 3/18/18 2/16/16
f 2/16/19 3/18/20 6/19/21 5/20/22
f 3/21/23 18/22/24 9/23/25 6/24/26
f 18/22/27 15/25/28 12/26/29 9/23/30
f 15/14/31 14/11/32 11/27/33 12/28/34
f 14/11/35 13/10/36 10/29/37 11/27/38
f 13/30/39 16/31/40 7/32/41 10/33/42
f 16/31/43 1/34/44 4/35/45 7/32/46
f 1/17/47 2/16/48 5/20/49 4/36/50
