# This file uses centimeters as units for non-parametric coordinates.

v 5.500000 -1.000000 3.000000
v 6.500000 -1.000000 3.000000
v 7.500000 -1.000000 3.000000
v 5.500000 0.000000 3.000000
v 6.500000 0.000000 3.000000
v 7.500000 0.000000 3.000000
v 5.500000 0.000000 2.000000
v 6.500000 0.000000 2.000000
v 7.500000 0.000000 2.000000
v 5.500000 0.000000 1.000000
v 6.500000 0.000000 1.000000
v 7.500000 0.000000 1.000000
v 5.500000 0.000000 0.000000
v 6.500000 0.000000 0.000000
v 7.500000 0.000000 0.000000
v 5.500000 0.000000 -1.000000
v 6.500000 0.000000 -1.000000
v 7.500000 0.000000 -1.000000
v 5.500000 0.000000 -2.000000
v 6.500000 0.000000 -2.000000
v 7.500000 0.000000 -2.000000
v 5.500000 0.000000 -3.000000
v 6.500000 0.000000 -3.000000
v 7.500000 0.000000 -3.000000
v 5.500000 -1.000000 -3.000000
v 6.500000 -1.000000 -3.000000
v 7.500000 -1.000000 -3.000000
v 5.500000 -1.000000 -2.000000
v 6.500000 -1.000000 -2.000000
v 7.500000 -1.000000 -2.000000
v 5.500000 -1.000000 -1.000000
v 6.500000 -1.000000 -1.000000
v 7.500000 -1.000000 -1.000000
v 5.500000 -1.000000 0.000000
v 6.500000 -1.000000 0.000000
v 7.500000 -1.000000 0.000000
v 5.500000 -1.000000 1.000000
v 6.500000 -1.000000 1.000000
v 7.500000 -1.000000 1.000000
v 5.500000 -1.000000 2.000000
v 6.500000 -1.000000 2.000000
v 7.500000 -1.000000 2.000000
vt 0.167098 0.816136
vt 0.179098 0.816136
vt 0.179098 0.828136
vt 0.167098 0.828136
vt 0.191098 0.816136
vt 0.191098 0.828136
vt 0.167098 0.879488
vt 0.179098 0.879488
vt 0.179098 0.891488
vt 0.167098 0.891488
vt 0.191098 0.879488
vt 0.191098 0.891488
vt 0.179098 0.903488
vt 0.167098 0.903488
vt 0.191098 0.903488
vt 0.179098 0.915488
vt 0.167098 0.915488
vt 0.191098 0.915488
vt 0.179098 0.927488
vt 0.167098 0.927488
vt 0.191098 0.927488
vt 0.179098 0.939488
vt 0.167098 0.939488
vt 0.191098 0.939488
vt 0.179098 0.951488
vt 0.167098 0.951488
vt 0.191098 0.951488
vt 0.167098 0.732136
vt 0.179098 0.732136
vt 0.179098 0.744136
vt 0.167098 0.744136
vt 0.191098 0.732136
vt 0.191098 0.744136
vt 0.179098 0.756136
vt 0.167098 0.756136
vt 0.191098 0.756136
vt 0.179098 0.768136
vt 0.167098 0.768136
vt 0.191098 0.768136
vt 0.179098 0.780136
vt 0.167098 0.780136
vt 0.191098 0.780136
vt 0.179098 0.792136
vt 0.167098 0.792136
vt 0.191098 0.792136
vt 0.179098 0.804136
vt 0.167098 0.804136
vt 0.191098 0.804136
vt 0.185920 0.643959
vt 0.185921 0.656740
vt 0.173140 0.656740
vt 0.173140 0.643959
vt 0.185921 0.669521
vt 0.173140 0.669521
vt 0.185921 0.682302
vt 0.173140 0.682302
vt 0.185921 0.695083
vt 0.173140 0.695083
vt 0.185921 0.707864
vt 0.173140 0.707864
vt 0.185921 0.720646
vt 0.173140 0.720646
vt 0.187352 0.530909
vt 0.187352 0.544652
vt 0.173605 0.544652
vt 0.173605 0.530909
vt 0.187352 0.558396
vt 0.173605 0.558396
vt 0.187352 0.572139
vt 0.173605 0.572139
vt 0.187352 0.585882
vt 0.173605 0.585882
vt 0.187352 0.599626
vt 0.173605 0.599626
vt 0.187352 0.613369
vt 0.173605 0.613369
vn 0.000000 0.000000 1.000000
vn 0.000000 0.000000 1.000000
vn 0.000000 0.000000 1.000000
vn 0.000000 0.000000 1.000000
vn 0.000000 0.000000 1.000000
vn 0.000000 0.000000 1.000000
vn 0.000000 1.000000 0.000000
vn 0.000000 1.000000 0.000000
vn 0.000000 1.000000 0.000000
vn 0.000000 1.000000 0.000000
vn 0.000000 1.000000 0.000000
vn 0.000000 1.000000 0.000000
vn 0.000000 1.000000 0.000000
vn 0.000000 1.000000 0.000000
vn 0.000000 1.000000 0.000000
vn 0.000000 1.000000 0.000000
vn 0.000000 1.000000 0.000000
vn 0.000000 1.000000 0.000000
vn 0.000000 1.000000 0.000000
vn 0.000000 1.000000 0.000000
vn 0.000000 1.000000 0.000000
vn 0.000000 1.000000 0.000000
vn 0.000000 1.000000 0.000000
vn 0.000000 1.000000 0.000000
vn 0.000000 1.000000 0.000000
vn 0.000000 1.000000 0.000000
vn 0.000000 1.000000 0.000000
vn 0.000000 0.000000 -1.000000
vn 0.000000 0.000000 -1.000000
vn 0.000000 0.000000 -1.000000
vn 0.000000 0.000000 -1.000000
vn 0.000000 0.000000 -1.000000
vn 0.000000 0.000000 -1.000000
vn 0.000000 -1.000000 0.000000
vn 0.000000 -1.000000 0.000000
vn 0.000000 -1.000000 0.000000
vn 0.000000 -1.000000 0.000000
vn 0.000000 -1.000000 0.000000
vn 0.000000 -1.000000 0.000000
vn 0.000000 -1.000000 0.000000
vn 0.000000 -1.000000 0.000000
vn 0.000000 -1.000000 0.000000
vn 0.000000 -1.000000 0.000000
vn 0.000000 -1.000000 0.000000
vn 0.000000 -1.000000 0.000000
vn 0.000000 -1.000000 0.000000
vn 0.000000 -1.000000 0.000000
vn 0.000000 -1.000000 0.000000
vn 0.000000 -1.000000 0.000000
vn 0.000000 -1.000000 0.000000
vn 0.000000 -1.000000 0.000000
vn 0.000000 -1.000000 0.000000
vn 0.000000 -1.000000 0.000000
vn 0.000000 -1.000000 0.000000
vn 1.000000 0.000000 0.000000
vn 1.000000 0.000000 0.000000
vn 1.000000 0.000000 0.000000
vn 1.000000 0.000000 0.000000
vn 1.000000 0.000000 0.000000
vn 1.000000 0.000000 0.000000
vn 1.000000 0.000000 0.000000
vn 1.000000 0.000000 0.000000
vn 1.000000 0.000000 0.000000
vn 1.000000 0.000000 0.000000
vn 1.000000 0.000000 0.000000
vn 1.000000 0.000000 0.000000
vn 1.000000 0.000000 0.000000
vn 1.000000 0.000000 0.000000
vn 1.000000 0.000000 0.000000
vn 1.000000 0.000000 0.000000
vn 1.000000 0.000000 0.000000
vn 1.000000 0.000000 0.000000
vn 1.000000 0.000000 0.000000
vn 1.000000 0.000000 0.000000
vn 1.000000 0.000000 0.000000
vn 1.000000 0.000000 0.000000
vn 1.000000 0.000000 0.000000
vn 1.000000 0.000000 0.000000
vn -1.000000 0.000000 0.000000
vn -1.000000 0.000000 0.000000
vn -1.000000 0.000000 0.000000
vn -1.000000 0.000000 0.000000
vn -1.000000 0.000000 0.000000
vn -1.000000 0.000000 0.000000
vn -1.000000 0.000000 0.000000
vn -1.000000 0.000000 0.000000
vn -1.000000 0.000000 0.000000
vn -1.000000 0.000000 0.000000
vn -1.000000 0.000000 0.000000
vn -1.000000 0.000000 0.000000
vn -1.000000 0.000000 0.000000
vn -1.000000 0.000000 0.000000
vn -1.000000 0.000000 0.000000
vn -1.000000 0.000000 0.000000
vn -1.000000 0.000000 0.000000
vn -1.000000 0.000000 0.000000
vn -1.000000 0.000000 0.000000
vn -1.000000 0.000000 0.000000
vn -1.000000 0.000000 0.000000
vn -1.000000 0.000000 0.000000
vn -1.000000 0.000000 0.000000
vn -1.000000 0.000000 0.000000
f 1/1/1 2/2/2 5/3/3 4/4/4
f 2/2/2 3/5/5 6/6/6 5/3/3
f 4/7/7 5/8/8 8/9/9 7/10/10
f 5/8/8 6/11/11 9/12/12 8/9/9
f 7/10/10 8/9/9 11/13/13 10/14/14
f 8/9/9 9/12/12 12/15/15 11/13/13
f 10/14/14 11/13/13 14/16/16 13/17/17
f 11/13/13 12/15/15 15/18/18 14/16/16
f 13/17/17 14/16/16 17/19/19 16/20/20
f 14/16/16 15/18/18 18/21/21 17/19/19
f 16/20/20 17/19/19 20/22/22 19/23/23
f 17/19/19 18/21/21 21/24/24 20/22/22
f 19/23/23 20/22/22 23/25/25 22/26/26
f 20/22/22 21/24/24 24/27/27 23/25/25
f 22/28/28 23/29/29 26/30/30 25/31/31
f 23/29/29 24/32/32 27/33/33 26/30/30
f 25/31/34 26/30/35 29/34/36 28/35/37
f 26/30/35 27/33/38 30/36/39 29/34/36
f 28/35/37 29/34/36 32/37/40 31/38/41
f 29/34/36 30/36/39 33/39/42 32/37/40
f 31/38/41 32/37/40 35/40/43 34/41/44
f 32/37/40 33/39/42 36/42/45 35/40/43
f 34/41/44 35/40/43 38/43/46 37/44/47
f 35/40/43 36/42/45 39/45/48 38/43/46
f 37/44/47 38/43/46 41/46/49 40/47/50
f 38/43/46 39/45/48 42/48/51 41/46/49
f 40/47/50 41/46/49 2/2/52 1/1/53
f 41/46/49 42/48/51 3/5/54 2/2/52
f 24/49/55 21/50/56 30/51/57 27/52/58
f 21/50/59 18/53/60 33/54/61 30/51/62
f 18/53/63 15/55/64 36/56/65 33/54/66
f 15/55/67 12/57/68 39/58/69 36/56/70
f 12/57/71 9/59/72 42/60/73 39/58/74
f 9/59/75 6/61/76 3/62/77 42/60/78
f 4/63/79 7/64/80 40/65/81 1/66/82
f 7/64/83 10/67/84 37/68/85 40/65/86
f 10/67/87 13/69/88 34/70/89 37/68/90
f 13/69/91 16/71/92 31/72/93 34/70/94
f 16/71/95 19/73/96 28/74/97 31/72/98
f 19/73/99 22/75/100 25/76/101 28/74/102
