# This file uses centimeters as units for non-parametric coordinates.

v 55.500000 0.000000 -1.000000
v 56.500000 0.000000 -1.000000
v 57.500000 0.000000 -1.000000
v 58.500000 0.000000 -1.000000
v 55.500000 0.000000 -2.000000
v 56.500000 0.000000 -2.000000
v 57.500000 0.000000 -2.000000
v 58.500000 0.000000 -2.000000
v 55.500000 -1.000000 -2.000000
v 56.500000 -1.000000 -2.000000
v 57.500000 -1.000000 -2.000000
v 58.500000 -1.000000 -2.000000
v 55.500000 -1.000000 -1.000000
v 56.500000 -1.000000 -1.000000
v 57.500000 -1.000000 -1.000000
v 58.500000 -1.000000 -1.000000
vt 0.767098 0.927488
vt 0.779098 0.927488
vt 0.779098 0.939488
vt 0.767098 0.939488
vt 0.791098 0.927488
vt 0.791098 0.939488
vt 0.803098 0.927488
vt 0.803098 0.939488
vt 0.767098 0.756135
vt 0.779098 0.756136
vt 0.779098 0.768136
vt 0.767098 0.768136
vt 0.791098 0.756136
vt 0.791098 0.768136
vt 0.803098 0.756136
vt 0.803098 0.768136
vt 0.779098 0.780136
vt 0.767098 0.780136
vt 0.798329 0.672573
vt 0.798330 0.686316
vt 0.784583 0.686316
vt 0.784582 0.672573
vt 0.767099 0.744135
vt 0.779099 0.744135
vt 0.791099 0.744136
vt 0.803099 0.744136
vt 0.797846 0.702793
vt 0.797846 0.715574
vt 0.785065 0.715574
vt 0.785065 0.702793
vt 0.803098 0.780136
vt 0.791098 0.780136
vn 0.000000 1.000000 0.000000
vn 0.000000 1.000000 0.000000
vn 0.000000 1.000000 0.000000
vn 0.000000 1.000000 0.000000
vn 0.000000 1.000000 0.000000
vn 0.000000 1.000000 0.000000
vn 0.000000 1.000000 0.000000
vn 0.000000 1.000000 0.000000
vn 0.000000 -1.000000 0.000000
vn 0.000000 -1.000000 0.000000
vn 0.000000 -1.000000 0.000000
vn 0.000000 -1.000000 0.000000
vn 0.000000 -1.000000 0.000000
vn 0.000000 -1.000000 0.000000
vn 0.000000 -1.000000 0.000000
vn 0.000000 -1.000000 0.000000
vn 0.000000 0.000000 1.000000
vn 0.000000 0.000000 1.000000
vn 0.000000 0.000000 1.000000
vn 0.000000 0.000000 1.000000
vn -1.000000 0.000000 0.000000
vn -1.000000 0.000000 0.000000
vn -1.000000 0.000000 0.000000
vn -1.000000 0.000000 0.000000
vn 0.000000 0.000000 -1.000000
vn 0.000000 0.000000 -1.000000
vn 0.000000 0.000000 -1.000000
vn 0.000000 0.000000 -1.000000
vn 0.000000 0.000000 -1.000000
vn 0.000000 0.000000 -1.000000
vn 0.000000 0.000000 -1.000000
vn 0.000000 0.000000 -1.000000
vn 0.000000 0.000000 -1.000000
vn 0.000000 0.000000 -1.000000
vn 0.000000 0.000000 -1.000000
vn 0.000000 0.000000 -1.000000
vn 1.000000 0.000000 0.000000
vn 1.000000 0.000000 0.000000
vn 1.000000 0.000000 0.000000
vn 1.000000 0.000000 0.000000
vn 0.000000 0.000000 1.000000
vn 0.000000 0.000000 1.000000
vn 0.000000 0.000000 1.000000
vn 0.000000 0.000000 1.000000
vn 0.000000 0.000000 1.000000
vn 0.000000 0.000000 1.000000
vn 0.000000 0.000000 1.000000
vn 0.000000 0.000000 1.000000
f 1/1/1 2/2/2 6/3/3 5/4/4
f 2/2/2 3/5/5 7/6/6 6/3/3
f 3/5/5 4/7/7 8/8/8 7/6/6
f 9/9/9 10/10/10 14/11/11 13/12/12
f 10/10/10 11/13/13 15/14/14 14/11/11
f 11/13/13 12/15/15 16/16/16 15/14/14
f 2/17/17 1/18/18 13/12/19 14/11/20
f 1/19/21 5/20/22 9/21/23 13/22/24
f 5/23/25 6/24/26 10/10/27 9/9/28
f 6/24/29 7/25/30 11/13/31 10/10/32
f 7/25/33 8/26/34 12/15/35 11/13/36
f 8/27/37 4/28/38 16/29/39 12/30/40
f 4/31/41 3/32/42 15/14/43 16/16/44
f 3/32/45 2/17/46 14/11/47 15/14/48
