# This file uses centimeters as units for non-parametric coordinates.

v 8.500000 -1.000000 3.000000
v 9.500000 -1.000000 3.000000
v 10.500000 -1.000000 3.000000
v 8.500000 0.000000 3.000000
v 9.500000 0.000000 3.000000
v 10.500000 0.000000 3.000000
v 8.500000 0.000000 2.000000
v 9.500000 0.000000 2.000000
v 10.500000 0.000000 2.000000
v 8.500000 0.000000 1.000000
v 9.500000 0.000000 1.000000
v 10.500000 0.000000 1.000000
v 8.500000 -1.000000 1.000000
v 9.500000 -1.000000 1.000000
v 10.500000 -1.000000 1.000000
v 8.500000 -1.000000 2.000000
v 9.500000 -1.000000 2.000000
v 10.500000 -1.000000 2.000000
vt 0.203098 0.816136
vt 0.215098 0.816136
vt 0.215098 0.828136
vt 0.203098 0.828136
vt 0.227098 0.816136
vt 0.227098 0.828136
vt 0.215098 0.840136
vt 0.203098 0.840136
vt 0.227098 0.840136
vt 0.215098 0.852136
vt 0.203098 0.852136
vt 0.227098 0.852136
vt 0.203098 0.792136
vt 0.215098 0.792136
vt 0.215098 0.804136
vt 0.203098 0.804136
vt 0.227098 0.792136
vt 0.227098 0.804136
vt 0.231015 0.550319
vt 0.231015 0.564063
vt 0.217268 0.564063
vt 0.217268 0.550319
vt 0.231015 0.577806
vt 0.217268 0.577806
vt 0.231015 0.578126
vt 0.217268 0.578126
vt 0.231015 0.578445
vt 0.217268 0.578445
vt 0.222543 0.689803
vt 0.222543 0.702584
vt 0.209762 0.702584
vt 0.209762 0.689803
vt 0.222543 0.715365
vt 0.209762 0.715365
vn 0.000000 0.000000 1.000000
vn 0.000000 0.000000 1.000000
vn 0.000000 0.000000 1.000000
vn 0.000000 0.000000 1.000000
vn 0.000000 0.000000 1.000000
vn 0.000000 0.000000 1.000000
vn 0.000000 1.000000 0.000000
vn 0.000000 1.000000 0.000000
vn 0.000000 1.000000 0.000000
vn 0.000000 1.000000 0.000000
vn 0.000000 1.000000 0.000000
vn 0.000000 1.000000 0.000000
vn 0.000000 1.000000 0.000000
vn 0.000000 1.000000 0.000000
vn 0.000000 1.000000 0.000000
vn 0.000000 -1.000000 0.000000
vn 0.000000 -1.000000 0.000000
vn 0.000000 -1.000000 0.000000
vn 0.000000 -1.000000 0.000000
vn 0.000000 -1.000000 0.000000
vn 0.000000 -1.000000 0.000000
vn 0.000000 -1.000000 0.000000
vn 0.000000 -1.000000 0.000000
vn 0.000000 -1.000000 0.000000
vn -1.000000 0.000000 0.000000
vn -1.000000 0.000000 0.000000
vn -1.000000 0.000000 0.000000
vn -1.000000 0.000000 0.000000
vn -1.000000 0.000000 0.000000
vn -1.000000 0.000000 0.000000
vn -1.000000 0.000000 0.000000
vn -1.000000 0.000000 0.000000
vn 0.000000 0.000000 -1.000000
vn 0.000000 0.000000 -1.000000
vn 0.000000 0.000000 -1.000000
vn 0.000000 0.000000 -1.000000
vn 0.000000 0.000000 -1.000000
vn 0.000000 0.000000 -1.000000
vn 0.000000 0.000000 -1.000000
vn 0.000000 0.000000 -1.000000
vn 1.000000 0.000000 0.000000
vn 1.000000 0.000000 0.000000
vn 1.000000 0.000000 0.000000
vn 1.000000 0.000000 0.000000
vn 1.000000 0.000000 0.000000
vn 1.000000 0.000000 0.000000
vn 1.000000 0.000000 0.000000
vn 1.000000 0.000000 0.000000
f 1/1/1 2/2/2 5/3/3 4/4/4
f 2/2/2 3/5/5 6/6/6 5/3/3
f 4/4/7 5/3/8 8/7/9 7/8/10
f 5/3/8 6/6/11 9/9/12 8/7/9
f 7/8/10 8/7/9 11/10/13 10/11/14
f 8/7/9 9/9/12 12/12/15 11/10/13
f 13/13/16 14/14/17 17/15/18 16/16/19
f 14/14/17 15/17/20 18/18/21 17/15/18
f 16/16/19 17/15/18 2/2/22 1/1/23
f 17/15/18 18/18/21 3/5/24 2/2/22
f 4/19/25 7/20/26 16/21/27 1/22/28
f 7/20/29 10/23/30 13/24/31 16/21/32
f 10/23/33 11/25/34 14/26/35 13/24/36
f 11/25/37 12/27/38 15/28/39 14/26/40
f 12/29/41 9/30/42 18/31/43 15/32/44
f 9/30/45 6/33/46 3/34/47 18/31/48
