# 3ds Max Wavefront OBJ Exporter v0.97b - (c)2007 guruware
# File Created: 01.12.2019 15:29:30

mtllib Tree_Pine.mtl

#
# object Tree_Pine_Snow_Trunk_C
#

v  532.0784 -49.5833 1185.8320
v  531.7989 -49.5833 1145.4751
v  572.1559 -49.5833 1145.7545
v  572.4354 -49.5833 1186.1116
v  543.2650 44.9049 1174.6455
v  569.2186 44.9049 1175.1066
v  568.7575 44.9049 1149.1530
v  542.8038 44.9049 1148.6919
v  566.4011 -25.9612 1182.1472
v  535.4666 -25.9612 1182.4438
v  567.0293 -2.3392 1176.8789
v  538.5969 -2.3392 1179.3136
v  566.5807 21.2829 1176.1792
v  539.6066 21.2829 1178.3038
v  566.6977 -25.9612 1151.2128
v  569.4641 -2.3392 1148.4464
v  568.7054 21.2829 1149.2050
v  535.7632 -25.9612 1151.5094
v  541.0316 -2.3392 1150.8811
v  541.7313 21.2829 1151.3297
# 20 vertices

vn -0.6109 -0.5037 0.6109
vn -0.6106 -0.4681 -0.6388
vn 0.6276 -0.4606 -0.6276
vn 0.6388 -0.4681 0.6106
vn -0.5319 0.6589 0.5319
vn 0.6159 0.5559 0.5583
vn 0.5770 0.5781 -0.5770
vn -0.5583 0.5559 -0.6159
vn 0.6538 0.2245 0.7226
vn -0.6939 0.1921 0.6939
vn 0.7312 0.0808 0.6773
vn -0.7014 0.1264 0.7014
vn 0.6914 -0.0037 0.7224
vn -0.7009 0.1327 0.7009
vn 0.7045 0.0855 -0.7045
vn 0.7060 -0.0565 -0.7060
vn 0.7069 0.0214 -0.7069
vn -0.7226 0.2245 -0.6538
vn -0.6773 0.0808 -0.7312
vn -0.7224 -0.0037 -0.6914
# 20 vertex normals

vt 1.0000 0.0000 0.0000
vt 1.0000 1.0000 0.0000
vt 0.0000 1.0000 0.0000
vt 0.0000 0.0000 0.0000
vt 1.0000 0.2500 0.0000
vt 0.0000 0.2500 0.0000
vt 1.0000 0.5000 0.0000
vt 0.0000 0.5000 0.0000
vt 1.0000 0.7500 0.0000
vt 0.0000 0.7500 0.0000
# 10 texture coords

o Tree_Pine_Snow_Trunk_C
g Tree_Pine_Snow_Trunk_C
usemtl Pine_Wood
s off
f 1/1/1 2/2/2 3/3/3 4/4/4 
usemtl Snow
f 5/4/5 6/1/6 7/2/7 8/3/8 
usemtl Pine_Wood
f 1/4/1 4/1/4 9/5/9 10/6/10 
f 10/6/10 9/5/9 11/7/11 12/8/12 
f 12/8/12 11/7/11 13/9/13 14/10/14 
f 14/10/14 13/9/13 6/2/6 5/3/5 
f 4/4/4 3/1/3 15/5/15 9/6/9 
f 9/6/9 15/5/15 16/7/16 11/8/11 
f 11/8/11 16/7/16 17/9/17 13/10/13 
f 13/10/13 17/9/17 7/2/7 6/3/6 
f 3/4/3 2/1/2 18/5/18 15/6/15 
f 15/6/15 18/5/18 19/7/19 16/8/16 
f 16/8/16 19/7/19 20/9/20 17/10/17 
f 17/10/17 20/9/20 8/2/8 7/3/7 
f 2/4/2 1/1/1 10/5/10 18/6/18 
f 18/6/18 10/5/10 12/7/12 19/8/19 
f 19/8/19 12/7/12 14/9/14 20/10/20 
f 20/10/20 14/9/14 5/2/5 8/3/8 
# 18 polygons

#
# object Tree_Pine_Snow_Leaves_C
#

v  554.5242 37.8132 1168.2266
v  575.4797 38.0113 1149.1547
v  582.0833 35.9963 1170.0436
v  561.1526 43.2242 1140.4655
v  544.1202 40.1349 1141.4067
v  530.8882 43.3964 1150.3572
v  526.9651 39.2225 1166.8174
v  534.3336 41.7520 1182.7548
v  547.3723 38.9662 1193.8271
v  564.4047 39.3562 1192.8859
v  578.9250 43.2293 1181.5522
v  598.2292 39.1776 1137.4741
v  609.6423 39.6061 1166.4337
v  572.4535 40.8386 1116.3824
v  538.3886 42.6900 1114.0073
v  509.0462 38.4513 1134.3314
v  499.4061 41.4316 1164.6083
v  508.3637 39.3733 1199.1266
v  540.4038 34.7780 1218.8483
v  574.4687 34.1418 1221.2234
v  597.5468 33.9648 1202.2693
v  623.2122 39.4889 1117.8055
v  637.2014 35.4934 1170.5465
v  577.7692 38.5489 1091.0497
v  526.6719 38.4238 1088.1896
v  489.4378 44.0165 1117.1675
v  471.8470 39.6621 1166.3777
v  487.2476 36.1677 1214.3604
v  529.2333 37.7619 1245.4508
v  580.3306 38.3815 1248.3110
v  621.0221 43.3087 1214.9983
v  611.5476 85.4220 1126.1044
v  619.2303 87.8579 1167.2335
v  574.5978 84.1223 1103.2686
v  533.7200 84.8785 1106.5699
v  504.5280 88.7784 1124.7217
v  486.9468 86.9998 1163.5273
v  504.7912 88.4225 1202.4760
v  533.9388 86.4398 1232.3790
v  574.8167 88.4271 1229.0776
v  611.8108 88.8126 1203.8586
v  619.2391 90.8099 1167.1671
v  611.5564 88.3740 1126.0380
v  593.0612 131.1716 1135.8130
v  603.2009 136.7949 1165.7572
v  574.6066 87.0743 1103.2021
v  568.5311 135.9080 1124.1677
v  533.7288 87.8305 1106.5035
v  537.8727 137.0895 1119.3927
v  504.5368 91.7304 1124.6553
v  512.7964 134.5779 1137.5424
v  486.9556 89.9518 1163.4608
v  503.9883 135.4596 1167.3401
v  504.8000 91.3745 1202.4095
v  515.9440 136.2808 1195.8580
v  533.9476 89.3918 1232.3126
v  540.7222 133.3491 1213.7495
v  574.8254 91.3791 1229.0111
v  571.3806 140.0672 1218.5245
v  611.8196 91.7646 1203.7921
v  596.2086 134.9477 1194.1287
v  585.9681 183.0363 1149.9069
v  591.7701 181.3825 1166.1689
v  565.7336 186.5474 1137.4012
v  545.2947 183.4894 1135.5645
v  532.4583 182.6029 1149.1913
v  525.6284 180.1494 1165.3992
v  526.1343 182.3728 1188.0684
v  546.8024 182.7632 1198.4690
v  567.2413 180.1398 1200.3058
v  579.6441 183.0654 1188.7841
v  569.8018 228.4250 1158.3822
v  573.9311 228.6707 1167.3651
v  560.1298 227.7927 1151.6804
v  549.9104 233.6694 1153.9258
v  543.0469 229.3542 1162.4851
v  540.8602 231.7111 1171.1852
v  540.6809 231.7383 1181.9237
v  545.5620 230.1057 1185.3781
v  555.7814 229.0781 1183.1327
v  567.4358 228.6326 1177.8208
v  556.2180 276.9857 1166.4751
# 82 vertices

vn -0.0432 -0.9990 -0.0101
vn -0.0968 -0.9738 -0.2059
vn 0.0572 -0.9678 0.2452
vn -0.0296 -0.9990 -0.0320
vn -0.0524 -0.9957 -0.0760
vn 0.0450 -0.9990 0.0022
vn -0.0667 -0.9973 -0.0302
vn -0.0271 -0.9996 0.0015
vn -0.0458 -0.9941 -0.0987
vn 0.0863 -0.9895 -0.1162
vn -0.2198 -0.9702 0.1023
vn 0.0110 -0.9995 -0.0285
vn -0.0389 -0.9977 -0.0563
vn -0.0877 -0.9939 0.0663
vn 0.0349 -0.9983 0.0473
vn -0.0408 -0.9985 -0.0367
vn 0.0053 -0.9997 0.0236
vn 0.0305 -0.9896 -0.1405
vn -0.0622 -0.9976 -0.0308
vn -0.0006 -0.9995 0.0306
vn 0.0893 -0.9959 -0.0160
vn 0.6871 -0.4966 -0.5304
vn 0.7929 -0.6057 0.0664
vn 0.2384 -0.5874 -0.7734
vn -0.2745 -0.5552 -0.7851
vn -0.7527 -0.3958 -0.5261
vn -0.8391 -0.5429 -0.0349
vn -0.6818 -0.5547 0.4769
vn -0.2867 -0.5002 0.8171
vn 0.2887 -0.4426 0.8490
vn 0.7468 -0.3643 0.5564
vn 0.8132 0.1505 -0.5621
vn 0.9864 0.1645 -0.0017
vn 0.2313 0.1295 -0.9642
vn -0.2924 0.2010 -0.9349
vn -0.7335 0.1634 -0.6598
vn -0.9863 0.1652 -0.0033
vn -0.8069 0.1982 0.5564
vn -0.3467 0.1589 0.9244
vn 0.3216 0.2024 0.9250
vn 0.8288 0.1547 0.5378
vn 0.9865 0.1639 0.0011
vn 0.8048 0.2028 -0.5578
vn 0.6794 0.3662 -0.6358
vn 0.9560 0.2872 -0.0601
vn 0.2304 0.1864 -0.9551
vn 0.3101 0.3322 -0.8908
vn -0.3034 0.1169 -0.9456
vn -0.2330 0.3077 -0.9225
vn -0.7311 0.1631 -0.6625
vn -0.7752 0.3642 -0.5162
vn -0.9857 0.1684 -0.0085
vn -0.9204 0.3874 0.0537
vn -0.8162 0.1481 0.5585
vn -0.7462 0.2709 0.6081
vn -0.3443 0.2043 0.9164
vn -0.3751 0.3698 0.8500
vn 0.3279 0.1206 0.9370
vn 0.2748 0.3251 0.9049
vn 0.8195 0.1976 0.5379
vn 0.8182 0.3668 0.4427
vn 0.7722 0.3133 -0.5528
vn 0.9532 0.2927 0.0757
vn 0.3045 0.3047 -0.9025
vn -0.3549 0.3536 -0.8655
vn -0.7907 0.3779 -0.4817
vn -0.9130 0.3683 -0.1755
vn -0.8238 0.2839 0.4906
vn -0.2402 0.2835 0.9284
vn 0.3004 0.4033 0.8644
vn 0.7318 0.3294 0.5967
vn 0.7108 0.3363 -0.6177
vn 0.9355 0.3478 0.0630
vn 0.2565 0.3277 -0.9093
vn -0.4827 0.3194 -0.8154
vn -0.8681 0.2956 -0.3988
vn -0.9419 0.2988 -0.1535
vn -0.7986 0.3674 0.4766
vn -0.1582 0.3153 0.9357
vn 0.3131 0.3453 0.8847
vn 0.6261 0.3257 0.7085
vn 1.0000 0.0000 -0.0000
# 82 vertex normals

vt 0.5000 0.0000 0.0000
vt 0.8500 0.0000 0.3333
vt 0.7500 0.0000 0.3333
vt 0.9500 0.0000 0.3333
vt 0.0500 0.0000 0.3333
vt -0.0500 0.0000 0.3333
vt 0.1500 0.0000 0.3333
vt 0.2500 0.0000 0.3333
vt 0.3500 0.0000 0.3333
vt 0.4500 0.0000 0.3333
vt 0.5500 0.0000 0.3333
vt 0.6500 0.0000 0.3333
vt 0.8500 0.0000 0.6667
vt 0.7500 0.0000 0.6667
vt 0.9500 0.0000 0.6667
vt 0.0500 0.0000 0.6667
vt -0.0500 0.0000 0.6667
vt 0.1500 0.0000 0.6667
vt 0.2500 0.0000 0.6667
vt 0.3500 0.0000 0.6667
vt 0.4500 0.0000 0.6667
vt 0.5500 0.0000 0.6667
vt 0.6500 0.0000 0.6667
vt 0.8500 0.0000 1.0000
vt 0.7500 0.0000 1.0000
vt 0.9500 0.0000 1.0000
vt 0.0500 0.0000 1.0000
vt -0.0500 0.0000 1.0000
vt 0.1500 0.0000 1.0000
vt 0.2500 0.0000 1.0000
vt 0.3500 0.0000 1.0000
vt 0.4500 0.0000 1.0000
vt 0.5500 0.0000 1.0000
vt 0.6500 0.0000 1.0000
vt 0.8500 0.2000 0.8000
vt 0.7500 0.2000 0.8000
vt 0.9500 0.2000 0.8000
vt 0.0500 0.2000 0.8000
vt -0.0500 0.2000 0.8000
vt 0.1500 0.2000 0.8000
vt 0.2500 0.2000 0.8000
vt 0.3500 0.2000 0.8000
vt 0.4500 0.2000 0.8000
vt 0.5500 0.2000 0.8000
vt 0.6500 0.2000 0.8000
vt 0.8500 0.4000 0.6000
vt 0.7500 0.4000 0.6000
vt 0.9500 0.4000 0.6000
vt 0.0500 0.4000 0.6000
vt -0.0500 0.4000 0.6000
vt 0.1500 0.4000 0.6000
vt 0.2500 0.4000 0.6000
vt 0.3500 0.4000 0.6000
vt 0.4500 0.4000 0.6000
vt 0.5500 0.4000 0.6000
vt 0.6500 0.4000 0.6000
vt 0.8500 0.6000 0.4000
vt 0.7500 0.6000 0.4000
vt 0.9500 0.6000 0.4000
vt 0.0500 0.6000 0.4000
vt -0.0500 0.6000 0.4000
vt 0.1500 0.6000 0.4000
vt 0.2500 0.6000 0.4000
vt 0.3500 0.6000 0.4000
vt 0.4500 0.6000 0.4000
vt 0.5500 0.6000 0.4000
vt 0.6500 0.6000 0.4000
vt 0.8500 0.8000 0.2000
vt 0.7500 0.8000 0.2000
vt 0.9500 0.8000 0.2000
vt 0.0500 0.8000 0.2000
vt -0.0500 0.8000 0.2000
vt 0.1500 0.8000 0.2000
vt 0.2500 0.8000 0.2000
vt 0.3500 0.8000 0.2000
vt 0.4500 0.8000 0.2000
vt 0.5500 0.8000 0.2000
vt 0.6500 0.8000 0.2000
vt 0.5000 1.0000 0.0000
# 79 texture coords

o Tree_Pine_Snow_Leaves_C
g Tree_Pine_Snow_Leaves_C
usemtl Pine_Leaves
s off
f 21/11/21 22/12/22 23/13/23 
f 21/11/21 24/14/24 22/12/22 
f 21/11/21 25/15/25 24/16/24 
f 21/11/21 26/17/26 25/15/25 
f 21/11/21 27/18/27 26/17/26 
f 21/11/21 28/19/28 27/18/27 
f 21/11/21 29/20/29 28/19/28 
f 21/11/21 30/21/30 29/20/29 
f 21/11/21 31/22/31 30/21/30 
f 21/11/21 23/13/23 31/22/31 
f 23/13/23 22/12/22 32/23/32 33/24/33 
f 22/12/22 24/14/24 34/25/34 32/23/32 
f 24/16/24 25/15/25 35/26/35 34/27/34 
f 25/15/25 26/17/26 36/28/36 35/26/35 
f 26/17/26 27/18/27 37/29/37 36/28/36 
f 27/18/27 28/19/28 38/30/38 37/29/37 
f 28/19/28 29/20/29 39/31/39 38/30/38 
f 29/20/29 30/21/30 40/32/40 39/31/39 
f 30/21/30 31/22/31 41/33/41 40/32/40 
f 31/22/31 23/13/23 33/24/33 41/33/41 
f 33/24/33 32/23/32 42/34/42 43/35/43 
f 32/23/32 34/25/34 44/36/44 42/34/42 
f 34/27/34 35/26/35 45/37/45 44/38/44 
f 35/26/35 36/28/36 46/39/46 45/37/45 
f 36/28/36 37/29/37 47/40/47 46/39/46 
f 37/29/37 38/30/38 48/41/48 47/40/47 
f 38/30/38 39/31/39 49/42/49 48/41/48 
f 39/31/39 40/32/40 50/43/50 49/42/49 
f 40/32/40 41/33/41 51/44/51 50/43/50 
f 41/33/41 33/24/33 43/35/43 51/44/51 
f 43/35/43 42/34/42 52/45/52 53/46/53 
f 42/34/42 44/36/44 54/47/54 52/45/52 
f 44/38/44 45/37/45 55/48/55 54/49/54 
f 45/37/45 46/39/46 56/50/56 55/48/55 
f 46/39/46 47/40/47 57/51/57 56/50/56 
f 47/40/47 48/41/48 58/52/58 57/51/57 
f 48/41/48 49/42/49 59/53/59 58/52/58 
f 49/42/49 50/43/50 60/54/60 59/53/59 
f 50/43/50 51/44/51 61/55/61 60/54/60 
f 51/44/51 43/35/43 53/46/53 61/55/61 
usemtl Snow
f 62/46/62 63/45/63 64/56/64 65/57/65 
f 63/45/63 66/47/66 67/58/67 64/56/64 
f 66/49/66 68/48/68 69/59/69 67/60/67 
f 68/48/68 70/50/70 71/61/71 69/59/69 
f 70/50/70 72/51/72 73/62/73 71/61/71 
f 72/51/72 74/52/74 75/63/75 73/62/73 
f 74/52/74 76/53/76 77/64/77 75/63/75 
f 76/53/76 78/54/78 79/65/79 77/64/77 
f 78/54/78 80/55/80 81/66/81 79/65/79 
f 80/55/80 62/46/62 65/57/65 81/66/81 
f 65/57/65 64/56/64 82/67/82 83/68/83 
f 64/56/64 67/58/67 84/69/84 82/67/82 
f 67/60/67 69/59/69 85/70/85 84/71/84 
f 69/59/69 71/61/71 86/72/86 85/70/85 
f 71/61/71 73/62/73 87/73/87 86/72/86 
f 73/62/73 75/63/75 88/74/88 87/73/87 
f 75/63/75 77/64/77 89/75/89 88/74/88 
f 77/64/77 79/65/79 90/76/90 89/75/89 
f 79/65/79 81/66/81 91/77/91 90/76/90 
f 81/66/81 65/57/65 83/68/83 91/77/91 
f 83/68/83 82/67/82 92/78/92 93/79/93 
f 82/67/82 84/69/84 94/80/94 92/78/92 
f 84/71/84 85/70/85 95/81/95 94/82/94 
f 85/70/85 86/72/86 96/83/96 95/81/95 
f 86/72/86 87/73/87 97/84/97 96/83/96 
f 87/73/87 88/74/88 98/85/98 97/84/97 
f 88/74/88 89/75/89 99/86/99 98/85/98 
f 89/75/89 90/76/90 100/87/100 99/86/99 
f 90/76/90 91/77/91 101/88/101 100/87/100 
f 91/77/91 83/68/83 93/79/93 101/88/101 
f 93/79/93 92/78/92 102/89/102 102/89/102 
f 92/78/92 94/80/94 102/89/102 102/89/102 
f 94/82/94 95/81/95 102/89/102 102/89/102 
f 95/81/95 96/83/96 102/89/102 102/89/102 
f 96/83/96 97/84/97 102/89/102 102/89/102 
f 97/84/97 98/85/98 102/89/102 102/89/102 
f 98/85/98 99/86/99 102/89/102 102/89/102 
f 99/86/99 100/87/100 102/89/102 102/89/102 
f 100/87/100 101/88/101 102/89/102 102/89/102 
f 101/88/101 93/79/93 102/89/102 102/89/102 
f 102/89/102 102/89/102 102/89/102 102/89/102 
f 102/89/102 102/89/102 102/89/102 102/89/102 
f 102/89/102 102/89/102 102/89/102 102/89/102 
f 102/89/102 102/89/102 102/89/102 102/89/102 
f 102/89/102 102/89/102 102/89/102 102/89/102 
f 102/89/102 102/89/102 102/89/102 102/89/102 
f 102/89/102 102/89/102 102/89/102 102/89/102 
f 102/89/102 102/89/102 102/89/102 102/89/102 
f 102/89/102 102/89/102 102/89/102 102/89/102 
f 102/89/102 102/89/102 102/89/102 102/89/102 
f 102/89/102 102/89/102 102/89/102 102/89/102 
f 102/89/102 102/89/102 102/89/102 102/89/102 
f 102/89/102 102/89/102 102/89/102 102/89/102 
f 102/89/102 102/89/102 102/89/102 102/89/102 
f 102/89/102 102/89/102 102/89/102 102/89/102 
f 102/89/102 102/89/102 102/89/102 102/89/102 
f 102/89/102 102/89/102 102/89/102 102/89/102 
f 102/89/102 102/89/102 102/89/102 102/89/102 
f 102/89/102 102/89/102 102/89/102 102/89/102 
f 102/89/102 102/89/102 102/89/102 102/89/102 
f 102/89/102 102/89/102 102/89/102 
f 102/89/102 102/89/102 102/89/102 
f 102/89/102 102/89/102 102/89/102 
f 102/89/102 102/89/102 102/89/102 
f 102/89/102 102/89/102 102/89/102 
f 102/89/102 102/89/102 102/89/102 
f 102/89/102 102/89/102 102/89/102 
f 102/89/102 102/89/102 102/89/102 
f 102/89/102 102/89/102 102/89/102 
f 102/89/102 102/89/102 102/89/102 
f 53/46/53 52/45/52 63/45/63 62/46/62 
f 52/45/52 54/47/54 66/47/66 63/45/63 
f 54/49/54 55/48/55 68/48/68 66/49/66 
f 55/48/55 56/50/56 70/50/70 68/48/68 
f 56/50/56 57/51/57 72/51/72 70/50/70 
f 57/51/57 58/52/58 74/52/74 72/51/72 
f 58/52/58 59/53/59 76/53/76 74/52/74 
f 59/53/59 60/54/60 78/54/78 76/53/76 
f 60/54/60 61/55/61 80/55/80 78/54/78 
f 61/55/61 53/46/53 62/46/62 80/55/80 
# 100 polygons - 20 triangles

