# This file uses centimeters as units for non-parametric coordinates.

v 44.500000 2.000000 68.000000
v 45.500000 2.000000 68.000000
v 46.500000 2.000000 68.000000
v 47.500000 2.000000 68.000000
v 48.500000 2.000000 68.000000
v 49.500000 2.000000 68.000000
v 44.500000 2.000000 67.000000
v 45.500000 2.000000 67.000000
v 46.500000 2.000000 67.000000
v 47.500000 2.000000 67.000000
v 48.500000 2.000000 67.000000
v 49.500000 2.000000 67.000000
v 44.500000 1.000000 67.000000
v 45.500000 1.000000 67.000000
v 46.500000 1.000000 67.000000
v 47.500000 1.000000 67.000000
v 48.500000 1.000000 67.000000
v 49.500000 1.000000 67.000000
v 44.500000 1.000000 68.000000
v 45.500000 1.000000 68.000000
v 46.500000 1.000000 68.000000
v 47.500000 1.000000 68.000000
v 48.500000 1.000000 68.000000
v 49.500000 1.000000 68.000000
v 44.500000 3.000000 68.000000
v 45.500000 3.000000 68.000000
v 45.500000 3.000000 67.000000
v 44.500000 3.000000 67.000000
v 46.500000 3.000000 68.000000
v 46.500000 3.000000 67.000000
v 47.500000 3.000000 68.000000
v 47.500000 3.000000 67.000000
v 48.500000 3.000000 68.000000
v 48.500000 3.000000 67.000000
v 49.500000 3.000000 68.000000
v 49.500000 3.000000 67.000000
v 44.500000 4.000000 68.000000
v 45.500000 4.000000 68.000000
v 45.500000 4.000000 67.000000
v 44.500000 4.000000 67.000000
v 46.500000 4.000000 68.000000
v 46.500000 4.000000 67.000000
v 47.500000 4.000000 68.000000
v 47.500000 4.000000 67.000000
v 48.500000 4.000000 68.000000
v 48.500000 4.000000 67.000000
v 49.500000 4.000000 68.000000
v 49.500000 4.000000 67.000000
vt 0.369329 1.059851
vt 0.356093 1.059851
vt 0.356093 1.046616
vt 0.369329 1.046616
vt 0.342858 1.059851
vt 0.342858 1.046616
vt 0.329623 1.059851
vt 0.329623 1.046616
vt 0.316387 1.059851
vt 0.316387 1.046616
vt 0.303152 1.059851
vt 0.303152 1.046616
vt 0.369329 1.261987
vt 0.356093 1.261988
vt 0.356093 1.248753
vt 0.369329 1.248753
vt 0.342858 1.261988
vt 0.342858 1.248753
vt 0.329623 1.261989
vt 0.329623 1.248753
vt 0.316387 1.261989
vt 0.316387 1.248753
vt 0.303152 1.261989
vt 0.303152 1.248753
vt 0.356093 1.235518
vt 0.369329 1.235518
vt 0.364969 1.331043
vt 0.350839 1.331043
vt 0.350839 1.316912
vt 0.364969 1.316912
vt 0.369329 1.275223
vt 0.356094 1.275223
vt 0.342859 1.275223
vt 0.329623 1.275224
vt 0.316388 1.275224
vt 0.303153 1.275225
vt 0.318270 1.336550
vt 0.304140 1.336550
vt 0.304140 1.322419
vt 0.318270 1.322419
vt 0.303152 1.235518
vt 0.316387 1.235518
vt 0.329623 1.235518
vt 0.342858 1.235518
vt 0.356093 1.222282
vt 0.369329 1.222282
vt 0.369330 1.288458
vt 0.356094 1.288458
vt 0.364969 1.345173
vt 0.350839 1.345173
vt 0.342858 1.222282
vt 0.342859 1.288459
vt 0.329623 1.222282
vt 0.329624 1.288459
vt 0.316387 1.222282
vt 0.316388 1.288460
vt 0.303152 1.222282
vt 0.318270 1.350680
vt 0.304140 1.350680
vt 0.303153 1.288460
vt 0.356093 1.209047
vt 0.369329 1.209047
vt 0.369330 1.301693
vt 0.356095 1.301694
vt 0.364969 1.359303
vt 0.350839 1.359303
vt 0.342858 1.209047
vt 0.342860 1.301694
vt 0.329623 1.209047
vt 0.329624 1.301695
vt 0.316387 1.209047
vt 0.316389 1.301695
vt 0.303152 1.209047
vt 0.318270 1.364810
vt 0.304140 1.364810
vt 0.303154 1.301696
vn 0.000000 1.000000 0.000000
vn 0.000000 1.000000 0.000000
vn 0.000000 1.000000 0.000000
vn 0.000000 1.000000 0.000000
vn 0.000000 1.000000 0.000000
vn 0.000000 1.000000 0.000000
vn 0.000000 1.000000 0.000000
vn 0.000000 1.000000 0.000000
vn 0.000000 1.000000 0.000000
vn 0.000000 1.000000 0.000000
vn 0.000000 1.000000 0.000000
vn 0.000000 1.000000 0.000000
vn 0.000000 -1.000000 0.000000
vn 0.000000 -1.000000 0.000000
vn 0.000000 -1.000000 0.000000
vn 0.000000 -1.000000 0.000000
vn 0.000000 -1.000000 0.000000
vn 0.000000 -1.000000 0.000000
vn 0.000000 -1.000000 0.000000
vn 0.000000 -1.000000 0.000000
vn 0.000000 -1.000000 0.000000
vn 0.000000 -1.000000 0.000000
vn 0.000000 -1.000000 0.000000
vn 0.000000 -1.000000 0.000000
vn 0.000000 0.000000 1.000000
vn 0.000000 0.000000 1.000000
vn 0.000000 0.000000 1.000000
vn 0.000000 0.000000 1.000000
vn -1.000000 0.000000 0.000000
vn -1.000000 0.000000 0.000000
vn -1.000000 0.000000 0.000000
vn -1.000000 0.000000 0.000000
vn 0.000000 0.000000 -1.000000
vn 0.000000 0.000000 -1.000000
vn 0.000000 0.000000 -1.000000
vn 0.000000 0.000000 -1.000000
vn 0.000000 0.000000 -1.000000
vn 0.000000 0.000000 -1.000000
vn 0.000000 0.000000 -1.000000
vn 0.000000 0.000000 -1.000000
vn 0.000000 0.000000 -1.000000
vn 0.000000 0.000000 -1.000000
vn 0.000000 0.000000 -1.000000
vn 0.000000 0.000000 -1.000000
vn 0.000000 0.000000 -1.000000
vn 0.000000 0.000000 -1.000000
vn 0.000000 0.000000 -1.000000
vn 0.000000 0.000000 -1.000000
vn 1.000000 0.000000 0.000000
vn 1.000000 0.000000 0.000000
vn 1.000000 0.000000 0.000000
vn 1.000000 0.000000 0.000000
vn 0.000000 0.000000 1.000000
vn 0.000000 0.000000 1.000000
vn 0.000000 0.000000 1.000000
vn 0.000000 0.000000 1.000000
vn 0.000000 0.000000 1.000000
vn 0.000000 0.000000 1.000000
vn 0.000000 0.000000 1.000000
vn 0.000000 0.000000 1.000000
vn 0.000000 0.000000 1.000000
vn 0.000000 0.000000 1.000000
vn 0.000000 0.000000 1.000000
vn 0.000000 0.000000 1.000000
vn 0.000000 0.000000 1.000000
vn 0.000000 0.000000 1.000000
vn 0.000000 0.000000 -1.000000
vn 0.000000 0.000000 -1.000000
vn -1.000000 0.000000 0.000000
vn -1.000000 0.000000 0.000000
vn 0.000000 0.000000 1.000000
vn 0.000000 0.000000 -1.000000
vn 0.000000 0.000000 1.000000
vn 0.000000 0.000000 -1.000000
vn 0.000000 0.000000 1.000000
vn 0.000000 0.000000 -1.000000
vn 0.000000 0.000000 1.000000
vn 1.000000 0.000000 0.000000
vn 1.000000 0.000000 0.000000
vn 0.000000 0.000000 -1.000000
vn 0.000000 0.000000 1.000000
vn 0.000000 0.000000 1.000000
vn 0.000000 0.000000 -1.000000
vn 0.000000 0.000000 -1.000000
vn -1.000000 0.000000 0.000000
vn -1.000000 0.000000 0.000000
vn 0.000000 0.000000 1.000000
vn 0.000000 0.000000 -1.000000
vn 0.000000 0.000000 1.000000
vn 0.000000 0.000000 -1.000000
vn 0.000000 0.000000 1.000000
vn 0.000000 0.000000 -1.000000
vn 0.000000 0.000000 1.000000
vn 1.000000 0.000000 0.000000
vn 1.000000 0.000000 0.000000
vn 0.000000 0.000000 -1.000000
f 37/1/1 38/2/2 39/3/3 40/4/4
f 38/2/2 41/5/5 42/6/6 39/3/3
f 41/5/5 43/7/7 44/8/8 42/6/6
f 43/7/7 45/9/9 46/10/10 44/8/8
f 45/9/9 47/11/11 48/12/12 46/10/10
f 13/13/13 14/14/14 20/15/15 19/16/16
f 14/14/14 15/17/17 21/18/18 20/15/15
f 15/17/17 16/19/19 22/20/20 21/18/18
f 16/19/19 17/21/21 23/22/22 22/20/20
f 17/21/21 18/23/23 24/24/24 23/22/22
f 2/25/25 1/26/26 19/16/27 20/15/28
f 1/27/29 7/28/30 13/29/31 19/30/32
f 7/31/33 8/32/34 14/14/35 13/13/36
f 8/32/34 9/33/37 15/17/38 14/14/39
f 9/33/37 10/34/40 16/19/41 15/17/42
f 10/34/40 11/35/43 17/21/44 16/19/45
f 11/35/43 12/36/46 18/23/47 17/21/48
f 12/37/49 6/38/50 24/39/51 18/40/52
f 6/41/53 5/42/54 23/22/55 24/24/56
f 5/42/54 4/43/57 22/20/58 23/22/59
f 4/43/57 3/44/60 21/18/61 22/20/62
f 3/44/60 2/25/25 20/15/63 21/18/64
f 1/26/26 2/25/25 26/45/65 25/46/66
f 8/32/34 7/31/33 28/47/67 27/48/68
f 7/28/30 1/27/29 25/49/69 28/50/70
f 2/25/25 3/44/60 29/51/71 26/45/65
f 9/33/37 8/32/34 27/48/68 30/52/72
f 3/44/60 4/43/57 31/53/73 29/51/71
f 10/34/40 9/33/37 30/52/72 32/54/74
f 4/43/57 5/42/54 33/55/75 31/53/73
f 11/35/43 10/34/40 32/54/74 34/56/76
f 5/42/54 6/41/53 35/57/77 33/55/75
f 6/38/50 12/37/49 36/58/78 35/59/79
f 12/36/46 11/35/43 34/56/76 36/60/80
f 25/46/66 26/45/65 38/61/81 37/62/82
f 27/48/68 28/47/67 40/63/83 39/64/84
f 28/50/70 25/49/69 37/65/85 40/66/86
f 26/45/65 29/51/71 41/67/87 38/61/81
f 30/52/72 27/48/68 39/64/84 42/68/88
f 29/51/71 31/53/73 43/69/89 41/67/87
f 32/54/74 30/52/72 42/68/88 44/70/90
f 31/53/73 33/55/75 45/71/91 43/69/89
f 34/56/76 32/54/74 44/70/90 46/72/92
f 33/55/75 35/57/77 47/73/93 45/71/91
f 35/59/79 36/58/78 48/74/94 47/75/95
f 36/60/80 34/56/76 46/72/92 48/76/96
