# This file uses centimeters as units for non-parametric coordinates.

v 24.500000 -1.000000 68.000000
v 25.500000 -1.000000 68.000000
v 26.500000 -1.000000 68.000000
v 24.500000 -1.000000 67.000000
v 25.500000 -1.000000 67.000000
v 26.500000 -1.000000 67.000000
v 24.500000 -1.000000 66.000000
v 25.500000 -1.000000 66.000000
v 26.500000 -1.000000 66.000000
v 24.500000 -2.000000 66.000000
v 25.500000 -2.000000 66.000000
v 26.500000 -2.000000 66.000000
v 24.500000 -2.000000 67.000000
v 25.500000 -2.000000 67.000000
v 26.500000 -2.000000 67.000000
v 24.500000 -2.000000 68.000000
v 25.500000 -2.000000 68.000000
v 26.500000 -2.000000 68.000000
vt 0.634034 1.059851
vt 0.620799 1.059851
vt 0.620799 1.046616
vt 0.634034 1.046616
vt 0.607564 1.059851
vt 0.607564 1.046616
vt 0.620799 1.033380
vt 0.634034 1.033380
vt 0.607564 1.033380
vt 0.634034 1.275223
vt 0.620799 1.275223
vt 0.620799 1.261988
vt 0.634034 1.261988
vt 0.607564 1.275223
vt 0.607564 1.261988
vt 0.620799 1.248753
vt 0.634034 1.248756
vt 0.607564 1.248749
vt 0.620806 1.235518
vt 0.634041 1.235525
vt 0.625853 1.350476
vt 0.625853 1.364606
vt 0.611723 1.364606
vt 0.611723 1.350476
vt 0.625853 1.378736
vt 0.611723 1.378736
vt 0.634034 1.288459
vt 0.620799 1.288459
vt 0.607564 1.288459
vt 0.607564 1.275223
vt 0.602244 1.307797
vt 0.602244 1.321927
vt 0.588114 1.321927
vt 0.588114 1.307797
vt 0.602244 1.336057
vt 0.588114 1.336057
vt 0.607571 1.235511
vn 0.000000 1.000000 0.000000
vn 0.000000 1.000000 0.000000
vn 0.000000 1.000000 0.000000
vn 0.000000 1.000000 0.000000
vn 0.000000 1.000000 0.000000
vn 0.000000 1.000000 0.000000
vn 0.000000 1.000000 0.000000
vn 0.000000 1.000000 0.000000
vn 0.000000 1.000000 0.000000
vn 0.000000 -1.000000 0.000000
vn 0.000000 -1.000000 0.000000
vn 0.000000 -1.000000 0.000000
vn 0.000000 -1.000000 0.000000
vn 0.000000 -1.000000 0.000000
vn 0.000000 -1.000000 0.000000
vn 0.000000 -1.000000 0.000000
vn 0.000000 -1.000000 0.000000
vn 0.000000 -1.000000 0.000000
vn 0.000000 0.000000 1.000000
vn 0.000000 0.000000 1.000000
vn 0.000000 0.000000 1.000000
vn 0.000000 0.000000 1.000000
vn -1.000000 0.000000 0.000000
vn -1.000000 0.000000 0.000000
vn -1.000000 0.000000 0.000000
vn -1.000000 0.000000 0.000000
vn -1.000000 0.000000 0.000000
vn -1.000000 0.000000 0.000000
vn -1.000000 0.000000 0.000000
vn -1.000000 0.000000 0.000000
vn 0.000000 0.000000 -1.000000
vn 0.000000 0.000000 -1.000000
vn 0.000000 0.000000 -1.000000
vn 0.000000 0.000000 -1.000000
vn 0.000000 0.000000 -1.000000
vn 0.000000 0.000000 -1.000000
vn 0.000000 0.000000 -1.000000
vn 0.000000 0.000000 -1.000000
vn 1.000000 0.000000 0.000000
vn 1.000000 0.000000 0.000000
vn 1.000000 0.000000 0.000000
vn 1.000000 0.000000 0.000000
vn 1.000000 0.000000 0.000000
vn 1.000000 0.000000 0.000000
vn 1.000000 0.000000 0.000000
vn 1.000000 0.000000 0.000000
vn 0.000000 0.000000 1.000000
vn 0.000000 0.000000 1.000000
vn 0.000000 0.000000 1.000000
vn 0.000000 0.000000 1.000000
f 1/1/1 2/2/2 5/3/3 4/4/4
f 2/2/2 3/5/5 6/6/6 5/3/3
f 4/4/4 5/3/3 8/7/7 7/8/8
f 5/3/3 6/6/6 9/9/9 8/7/7
f 10/10/10 11/11/11 14/12/12 13/13/13
f 11/11/11 12/14/14 15/15/15 14/12/12
f 13/13/13 14/12/12 17/16/16 16/17/17
f 14/12/12 15/15/15 18/18/18 17/16/16
f 2/19/19 1/20/20 16/17/21 17/16/22
f 1/21/23 4/22/24 13/23/25 16/24/26
f 4/22/27 7/25/28 10/26/29 13/23/30
f 7/27/31 8/28/32 11/11/33 10/10/34
f 8/28/35 9/29/36 12/30/37 11/11/38
f 9/31/39 6/32/40 15/33/41 12/34/42
f 6/32/43 3/35/44 18/36/45 15/33/46
f 3/37/47 2/19/48 17/16/49 18/18/50
