# This file uses centimeters as units for non-parametric coordinates.

v 58.500000 1.500000 71.000000
v 59.500000 1.500000 71.000000
v 58.500000 1.500000 70.000000
v 59.500000 1.500000 70.000000
v 58.500000 1.500000 69.000000
v 59.500000 1.500000 69.000000
v 58.500000 1.500000 68.000000
v 59.500000 1.500000 68.000000
v 58.500000 0.500000 68.000000
v 59.500000 0.500000 68.000000
v 58.500000 0.500000 69.000000
v 59.500000 0.500000 69.000000
v 58.500000 0.500000 70.000000
v 59.500000 0.500000 70.000000
v 58.500000 0.500000 71.000000
v 59.500000 0.500000 71.000000
vt 0.184034 1.099557
vt 0.170799 1.099557
vt 0.170799 1.086322
vt 0.184034 1.086322
vt 0.170799 1.073086
vt 0.184034 1.073086
vt 0.170799 1.059851
vt 0.184034 1.059851
vt 0.184034 1.248754
vt 0.170799 1.248752
vt 0.170799 1.235518
vt 0.184034 1.235518
vt 0.170799 1.222282
vt 0.184034 1.222282
vt 0.170799 1.209047
vt 0.184034 1.209047
vt 0.170799 1.195812
vt 0.184034 1.195812
vt 0.218098 1.278363
vt 0.218098 1.292494
vt 0.203967 1.292494
vt 0.203967 1.278363
vt 0.218098 1.306624
vt 0.203967 1.306624
vt 0.218098 1.320754
vt 0.203967 1.320754
vt 0.184030 1.261991
vt 0.170795 1.261986
vt 0.187919 1.282494
vt 0.187919 1.296624
vt 0.173789 1.296624
vt 0.173789 1.282494
vt 0.187919 1.310754
vt 0.173789 1.310754
vt 0.187919 1.324884
vt 0.173789 1.324884
vn 0.000000 1.000000 0.000000
vn 0.000000 1.000000 0.000000
vn 0.000000 1.000000 0.000000
vn 0.000000 1.000000 0.000000
vn 0.000000 1.000000 0.000000
vn 0.000000 1.000000 0.000000
vn 0.000000 1.000000 0.000000
vn 0.000000 1.000000 0.000000
vn 0.000000 -1.000000 0.000000
vn 0.000000 -1.000000 0.000000
vn 0.000000 -1.000000 0.000000
vn 0.000000 -1.000000 0.000000
vn 0.000000 -1.000000 0.000000
vn 0.000000 -1.000000 0.000000
vn 0.000000 -1.000000 0.000000
vn 0.000000 -1.000000 0.000000
vn 0.000000 0.000000 1.000000
vn 0.000000 0.000000 1.000000
vn 0.000000 0.000000 1.000000
vn 0.000000 0.000000 1.000000
vn -1.000000 0.000000 0.000000
vn -1.000000 0.000000 0.000000
vn -1.000000 0.000000 0.000000
vn -1.000000 0.000000 0.000000
vn -1.000000 0.000000 0.000000
vn -1.000000 0.000000 0.000000
vn -1.000000 0.000000 0.000000
vn -1.000000 0.000000 0.000000
vn -1.000000 0.000000 0.000000
vn -1.000000 0.000000 0.000000
vn -1.000000 0.000000 0.000000
vn -1.000000 0.000000 0.000000
vn 0.000000 0.000000 -1.000000
vn 0.000000 0.000000 -1.000000
vn 0.000000 0.000000 -1.000000
vn 0.000000 0.000000 -1.000000
vn 1.000000 0.000000 0.000000
vn 1.000000 0.000000 0.000000
vn 1.000000 0.000000 0.000000
vn 1.000000 0.000000 0.000000
vn 1.000000 0.000000 0.000000
vn 1.000000 0.000000 0.000000
vn 1.000000 0.000000 0.000000
vn 1.000000 0.000000 0.000000
vn 1.000000 0.000000 0.000000
vn 1.000000 0.000000 0.000000
vn 1.000000 0.000000 0.000000
vn 1.000000 0.000000 0.000000
f 1/1/1 2/2/2 4/3/3 3/4/4
f 3/4/4 4/3/3 6/5/5 5/6/6
f 5/6/6 6/5/5 8/7/7 7/8/8
f 9/9/9 10/10/10 12/11/11 11/12/12
f 11/12/12 12/11/11 14/13/13 13/14/14
f 13/14/14 14/13/13 16/15/15 15/16/16
f 2/17/17 1/18/18 15/16/19 16/15/20
f 1/19/21 3/20/22 13/21/23 15/22/24
f 3/20/25 5/23/26 11/24/27 13/21/28
f 5/23/29 7/25/30 9/26/31 11/24/32
f 7/27/33 8/28/34 10/10/35 9/9/36
f 8/29/37 6/30/38 12/31/39 10/32/40
f 6/30/41 4/33/42 14/34/43 12/31/44
f 4/33/45 2/35/46 16/36/47 14/34/48
