# This file uses centimeters as units for non-parametric coordinates.

v 54.500000 2.500000 70.000000
v 55.500000 2.500000 70.000000
v 54.500000 2.500000 69.000000
v 55.500000 2.500000 69.000000
v 54.500000 2.500000 68.000000
v 55.500000 2.500000 68.000000
v 54.500000 1.500000 68.000000
v 55.500000 1.500000 68.000000
v 54.500000 1.500000 69.000000
v 55.500000 1.500000 69.000000
v 54.500000 1.500000 70.000000
v 55.500000 1.500000 70.000000
vt 0.236976 1.086322
vt 0.223740 1.086322
vt 0.223740 1.073086
vt 0.236976 1.073086
vt 0.223740 1.059851
vt 0.236976 1.059851
vt 0.236976 1.248753
vt 0.223740 1.248753
vt 0.223740 1.235518
vt 0.236976 1.235518
vt 0.223740 1.222282
vt 0.236976 1.222282
vt 0.223740 1.209047
vt 0.236976 1.209047
vt 0.239853 1.287146
vt 0.239853 1.301276
vt 0.225723 1.301276
vt 0.225723 1.287146
vt 0.239853 1.315406
vt 0.225723 1.315406
vt 0.236976 1.261988
vt 0.223740 1.261988
vt 0.214969 1.336708
vt 0.214969 1.350839
vt 0.200839 1.350839
vt 0.200839 1.336708
vt 0.214969 1.364969
vt 0.200839 1.364969
vn 0.000000 1.000000 0.000000
vn 0.000000 1.000000 0.000000
vn 0.000000 1.000000 0.000000
vn 0.000000 1.000000 0.000000
vn 0.000000 1.000000 0.000000
vn 0.000000 1.000000 0.000000
vn 0.000000 -1.000000 0.000000
vn 0.000000 -1.000000 0.000000
vn 0.000000 -1.000000 0.000000
vn 0.000000 -1.000000 0.000000
vn 0.000000 -1.000000 0.000000
vn 0.000000 -1.000000 0.000000
vn 0.000000 0.000000 1.000000
vn 0.000000 0.000000 1.000000
vn 0.000000 0.000000 1.000000
vn 0.000000 0.000000 1.000000
vn -1.000000 0.000000 0.000000
vn -1.000000 0.000000 0.000000
vn -1.000000 0.000000 0.000000
vn -1.000000 0.000000 0.000000
vn -1.000000 0.000000 0.000000
vn -1.000000 0.000000 0.000000
vn -1.000000 0.000000 0.000000
vn -1.000000 0.000000 0.000000
vn 0.000000 0.000000 -1.000000
vn 0.000000 0.000000 -1.000000
vn 0.000000 0.000000 -1.000000
vn 0.000000 0.000000 -1.000000
vn 1.000000 0.000000 0.000000
vn 1.000000 0.000000 0.000000
vn 1.000000 0.000000 0.000000
vn 1.000000 0.000000 0.000000
vn 1.000000 0.000000 0.000000
vn 1.000000 0.000000 0.000000
vn 1.000000 0.000000 0.000000
vn 1.000000 0.000000 0.000000
f 1/1/1 2/2/2 4/3/3 3/4/4
f 3/4/4 4/3/3 6/5/5 5/6/6
f 7/7/7 8/8/8 10/9/9 9/10/10
f 9/10/10 10/9/9 12/11/11 11/12/12
f 2/13/13 1/14/14 11/12/15 12/11/16
f 1/15/17 3/16/18 9/17/19 11/18/20
f 3/16/21 5/19/22 7/20/23 9/17/24
f 5/21/25 6/22/26 8/8/27 7/7/28
f 6/23/29 4/24/30 10/25/31 8/26/32
f 4/24/33 2/27/34 12/28/35 10/25/36
