# This file uses centimeters as units for non-parametric coordinates.

v 21.500000 0.000000 70.000000
v 22.500000 0.000000 70.000000
v 23.500000 0.000000 70.000000
v 21.500000 0.000000 69.000000
v 22.500000 0.000000 69.000000
v 23.500000 0.000000 69.000000
v 21.500000 0.000000 68.000000
v 22.500000 0.000000 68.000000
v 23.500000 0.000000 68.000000
v 21.500000 -1.000000 68.000000
v 22.500000 -1.000000 68.000000
v 23.500000 -1.000000 68.000000
v 21.500000 -1.000000 69.000000
v 22.500000 -1.000000 69.000000
v 23.500000 -1.000000 69.000000
v 21.500000 -1.000000 70.000000
v 22.500000 -1.000000 70.000000
v 23.500000 -1.000000 70.000000
vt 0.673740 1.086322
vt 0.660505 1.086322
vt 0.660505 1.073086
vt 0.673740 1.073086
vt 0.647270 1.086322
vt 0.647270 1.073086
vt 0.660505 1.059851
vt 0.673740 1.059851
vt 0.647270 1.059851
vt 0.673740 1.248758
vt 0.660505 1.248753
vt 0.660505 1.235518
vt 0.673740 1.235518
vt 0.647270 1.248748
vt 0.647270 1.235518
vt 0.660505 1.222282
vt 0.673740 1.222282
vt 0.647270 1.222282
vt 0.660505 1.209047
vt 0.673740 1.209047
vt 0.665263 1.301319
vt 0.665263 1.315449
vt 0.651133 1.315449
vt 0.651133 1.301319
vt 0.665263 1.329580
vt 0.651133 1.329580
vt 0.673730 1.261998
vt 0.660495 1.261988
vt 0.647259 1.261978
vt 0.672367 1.353635
vt 0.672367 1.367765
vt 0.658237 1.367765
vt 0.658237 1.353635
vt 0.672367 1.381896
vt 0.658237 1.381896
vt 0.647270 1.209047
vn 0.000000 1.000000 0.000000
vn 0.000000 1.000000 0.000000
vn 0.000000 1.000000 0.000000
vn 0.000000 1.000000 0.000000
vn 0.000000 1.000000 0.000000
vn 0.000000 1.000000 0.000000
vn 0.000000 1.000000 0.000000
vn 0.000000 1.000000 0.000000
vn 0.000000 1.000000 0.000000
vn 0.000000 -1.000000 0.000000
vn 0.000000 -1.000000 0.000000
vn 0.000000 -1.000000 0.000000
vn 0.000000 -1.000000 0.000000
vn 0.000000 -1.000000 0.000000
vn 0.000000 -1.000000 0.000000
vn 0.000000 -1.000000 0.000000
vn 0.000000 -1.000000 0.000000
vn 0.000000 -1.000000 0.000000
vn 0.000000 0.000000 1.000000
vn 0.000000 0.000000 1.000000
vn 0.000000 0.000000 1.000000
vn 0.000000 0.000000 1.000000
vn -1.000000 0.000000 0.000000
vn -1.000000 0.000000 0.000000
vn -1.000000 0.000000 0.000000
vn -1.000000 0.000000 0.000000
vn -1.000000 0.000000 0.000000
vn -1.000000 0.000000 0.000000
vn -1.000000 0.000000 0.000000
vn -1.000000 0.000000 0.000000
vn 0.000000 0.000000 -1.000000
vn 0.000000 0.000000 -1.000000
vn 0.000000 0.000000 -1.000000
vn 0.000000 0.000000 -1.000000
vn 0.000000 0.000000 -1.000000
vn 0.000000 0.000000 -1.000000
vn 0.000000 0.000000 -1.000000
vn 0.000000 0.000000 -1.000000
vn 1.000000 0.000000 0.000000
vn 1.000000 0.000000 0.000000
vn 1.000000 0.000000 0.000000
vn 1.000000 0.000000 0.000000
vn 1.000000 0.000000 0.000000
vn 1.000000 0.000000 0.000000
vn 1.000000 0.000000 0.000000
vn 1.000000 0.000000 0.000000
vn 0.000000 0.000000 1.000000
vn 0.000000 0.000000 1.000000
vn 0.000000 0.000000 1.000000
vn 0.000000 0.000000 1.000000
f 1/1/1 2/2/2 5/3/3 4/4/4
f 2/2/2 3/5/5 6/6/6 5/3/3
f 4/4/4 5/3/3 8/7/7 7/8/8
f 5/3/3 6/6/6 9/9/9 8/7/7
f 10/10/10 11/11/11 14/12/12 13/13/13
f 11/11/11 12/14/14 15/15/15 14/12/12
f 13/13/13 14/12/12 17/16/16 16/17/17
f 14/12/12 15/15/15 18/18/18 17/16/16
f 2/19/19 1/20/20 16/17/21 17/16/22
f 1/21/23 4/22/24 13/23/25 16/24/26
f 4/22/27 7/25/28 10/26/29 13/23/30
f 7/27/31 8/28/32 11/11/33 10/10/34
f 8/28/35 9/29/36 12/14/37 11/11/38
f 9/30/39 6/31/40 15/32/41 12/33/42
f 6/31/43 3/34/44 18/35/45 15/32/46
f 3/36/47 2/19/48 17/16/49 18/18/50
