# This file uses centimeters as units for non-parametric coordinates.

v 8.500000 0.000000 70.000000
v 9.500000 0.000000 70.000000
v 10.500000 0.000000 70.000000
v 11.500000 0.000000 70.000000
v 12.500000 0.000000 70.000000
v 8.500000 0.000000 69.000000
v 12.500000 0.000000 69.000000
v 8.500000 0.000000 68.000000
v 9.500000 0.000000 68.000000
v 10.500000 0.000000 68.000000
v 11.500000 0.000000 68.000000
v 12.500000 0.000000 68.000000
v 8.500000 -1.000000 68.000000
v 9.500000 -1.000000 68.000000
v 10.500000 -1.000000 68.000000
v 11.500000 -1.000000 68.000000
v 12.500000 -1.000000 68.000000
v 8.500000 -1.000000 69.000000
v 9.500000 -1.000000 69.000000
v 10.500000 -1.000000 69.000000
v 11.500000 -1.000000 69.000000
v 12.500000 -1.000000 69.000000
v 8.500000 -1.000000 70.000000
v 9.500000 -1.000000 70.000000
v 10.500000 -1.000000 70.000000
v 11.500000 -1.000000 70.000000
v 12.500000 -1.000000 70.000000
v 8.500000 1.000000 70.000000
v 9.500000 1.000000 70.000000
v 8.500000 1.000000 69.000000
v 10.500000 1.000000 70.000000
v 11.500000 1.000000 70.000000
v 12.500000 1.000000 70.000000
v 12.500000 1.000000 69.000000
v 9.500000 1.000000 68.000000
v 8.500000 1.000000 68.000000
v 10.500000 1.000000 68.000000
v 11.500000 1.000000 68.000000
v 12.500000 1.000000 68.000000
v 8.500000 2.000000 70.000000
v 9.500000 2.000000 70.000000
v 9.500000 2.000000 69.000000
v 8.500000 2.000000 69.000000
v 10.500000 2.000000 70.000000
v 10.500000 2.000000 69.000000
v 11.500000 2.000000 70.000000
v 11.500000 2.000000 69.000000
v 12.500000 2.000000 70.000000
v 12.500000 2.000000 69.000000
v 9.500000 2.000000 68.000000
v 8.500000 2.000000 68.000000
v 10.500000 2.000000 68.000000
v 11.500000 2.000000 68.000000
v 12.500000 2.000000 68.000000
vt 0.845799 1.086322
vt 0.832564 1.086322
vt 0.832564 1.073086
vt 0.845799 1.073086
vt 0.819329 1.086322
vt 0.819329 1.073086
vt 0.806093 1.086322
vt 0.806093 1.073086
vt 0.792858 1.086322
vt 0.792858 1.073086
vt 0.832564 1.059851
vt 0.845799 1.059851
vt 0.819329 1.059851
vt 0.806093 1.059851
vt 0.792858 1.059851
vt 0.845799 1.248754
vt 0.832564 1.248753
vt 0.832564 1.235518
vt 0.845800 1.235519
vt 0.819328 1.248753
vt 0.819329 1.235518
vt 0.806093 1.248753
vt 0.806094 1.235517
vt 0.792858 1.248752
vt 0.792859 1.235516
vt 0.832565 1.222283
vt 0.845801 1.222283
vt 0.819330 1.222282
vt 0.806095 1.222282
vt 0.792859 1.222282
vt 0.832565 1.209047
vt 0.845800 1.209047
vt 0.832485 1.321449
vt 0.818355 1.321449
vt 0.818355 1.307318
vt 0.832485 1.307318
vt 0.804225 1.321449
vt 0.804225 1.307318
vt 0.845799 1.261988
vt 0.832564 1.261988
vt 0.819328 1.261988
vt 0.806093 1.261988
vt 0.792858 1.261988
vt 0.838904 1.380648
vt 0.824774 1.380648
vt 0.824774 1.366518
vt 0.838904 1.366518
vt 0.810643 1.380648
vt 0.810643 1.366518
vt 0.792859 1.209047
vt 0.806094 1.209047
vt 0.819330 1.209047
vt 0.832565 1.195812
vt 0.845800 1.195812
vt 0.832485 1.335579
vt 0.818355 1.335579
vt 0.819330 1.195812
vt 0.806094 1.195812
vt 0.792859 1.195812
vt 0.824774 1.394779
vt 0.810643 1.394779
vt 0.845799 1.275223
vt 0.832564 1.275223
vt 0.804225 1.335579
vt 0.819328 1.275223
vt 0.806093 1.275223
vt 0.838904 1.394779
vt 0.792858 1.275223
vt 0.832565 1.182576
vt 0.845800 1.182576
vt 0.832485 1.349709
vt 0.818355 1.349709
vt 0.819330 1.182576
vt 0.806094 1.182577
vt 0.792859 1.182577
vt 0.824774 1.408909
vt 0.810643 1.408909
vt 0.845799 1.288459
vt 0.832564 1.288459
vt 0.804225 1.349709
vt 0.819328 1.288459
vt 0.806093 1.288459
vt 0.838904 1.408909
vt 0.792858 1.288459
vn 0.000000 1.000000 0.000000
vn 0.000000 1.000000 0.000000
vn 0.000000 1.000000 0.000000
vn 0.000000 1.000000 0.000000
vn 0.000000 1.000000 0.000000
vn 0.000000 1.000000 0.000000
vn 0.000000 1.000000 0.000000
vn 0.000000 1.000000 0.000000
vn 0.000000 1.000000 0.000000
vn 0.000000 1.000000 0.000000
vn 0.000000 1.000000 0.000000
vn 0.000000 1.000000 0.000000
vn 0.000000 1.000000 0.000000
vn 0.000000 1.000000 0.000000
vn 0.000000 1.000000 0.000000
vn 0.000000 -1.000000 0.000000
vn 0.000000 -1.000000 0.000000
vn 0.000000 -1.000000 0.000000
vn 0.000000 -1.000000 0.000000
vn 0.000000 -1.000000 0.000000
vn 0.000000 -1.000000 0.000000
vn 0.000000 -1.000000 0.000000
vn 0.000000 -1.000000 0.000000
vn 0.000000 -1.000000 0.000000
vn 0.000000 -1.000000 0.000000
vn 0.000000 -1.000000 0.000000
vn 0.000000 -1.000000 0.000000
vn 0.000000 -1.000000 0.000000
vn 0.000000 -1.000000 0.000000
vn 0.000000 -1.000000 0.000000
vn 0.000000 0.000000 1.000000
vn 0.000000 0.000000 1.000000
vn 0.000000 0.000000 1.000000
vn 0.000000 0.000000 1.000000
vn -1.000000 0.000000 0.000000
vn -1.000000 0.000000 0.000000
vn -1.000000 0.000000 0.000000
vn -1.000000 0.000000 0.000000
vn -1.000000 0.000000 0.000000
vn -1.000000 0.000000 0.000000
vn -1.000000 0.000000 0.000000
vn 0.000000 0.000000 -1.000000
vn 0.000000 0.000000 -1.000000
vn 0.000000 0.000000 -1.000000
vn 0.000000 0.000000 -1.000000
vn 0.000000 0.000000 -1.000000
vn 0.000000 0.000000 -1.000000
vn 0.000000 0.000000 -1.000000
vn 0.000000 0.000000 -1.000000
vn 0.000000 0.000000 -1.000000
vn 0.000000 0.000000 -1.000000
vn 0.000000 0.000000 -1.000000
vn 0.000000 0.000000 -1.000000
vn 0.000000 0.000000 -1.000000
vn 1.000000 0.000000 0.000000
vn 1.000000 0.000000 0.000000
vn 1.000000 0.000000 0.000000
vn 1.000000 0.000000 0.000000
vn 1.000000 0.000000 0.000000
vn 1.000000 0.000000 0.000000
vn 1.000000 0.000000 0.000000
vn 0.000000 0.000000 1.000000
vn 0.000000 0.000000 1.000000
vn 0.000000 0.000000 1.000000
vn 0.000000 0.000000 1.000000
vn 0.000000 0.000000 1.000000
vn 0.000000 0.000000 1.000000
vn 0.000000 0.000000 1.000000
vn 0.000000 0.000000 1.000000
vn 0.000000 0.000000 1.000000
vn 0.000000 0.000000 1.000000
vn 0.000000 0.000000 1.000000
vn -1.000000 0.000000 0.000000
vn -1.000000 0.000000 0.000000
vn 0.000000 0.000000 1.000000
vn 0.000000 0.000000 1.000000
vn 0.000000 0.000000 1.000000
vn 1.000000 0.000000 0.000000
vn 1.000000 0.000000 0.000000
vn 0.000000 0.000000 -1.000000
vn 0.000000 0.000000 -1.000000
vn -1.000000 0.000000 0.000000
vn 0.000000 0.000000 -1.000000
vn 0.000000 0.000000 -1.000000
vn 1.000000 0.000000 0.000000
vn 0.000000 0.000000 -1.000000
vn 0.000000 0.000000 1.000000
vn 0.000000 0.000000 1.000000
vn -1.000000 0.000000 0.000000
vn -1.000000 0.000000 0.000000
vn 0.000000 0.000000 1.000000
vn 0.000000 0.000000 1.000000
vn 0.000000 0.000000 1.000000
vn 1.000000 0.000000 0.000000
vn 1.000000 0.000000 0.000000
vn 0.000000 0.000000 -1.000000
vn 0.000000 0.000000 -1.000000
vn -1.000000 0.000000 0.000000
vn 0.000000 0.000000 -1.000000
vn 0.000000 0.000000 -1.000000
vn 1.000000 0.000000 0.000000
vn 0.000000 0.000000 -1.000000
f 40/1/1 41/2/2 42/3/3 43/4/4
f 41/2/2 44/5/5 45/6/6 42/3/3
f 44/5/5 46/7/7 47/8/8 45/6/6
f 46/7/7 48/9/9 49/10/10 47/8/8
f 43/4/4 42/3/3 50/11/11 51/12/12
f 42/3/3 45/6/6 52/13/13 50/11/11
f 45/6/6 47/8/8 53/14/14 52/13/13
f 47/8/8 49/10/10 54/15/15 53/14/14
f 13/16/16 14/17/17 19/18/18 18/19/19
f 14/17/17 15/20/20 20/21/21 19/18/18
f 15/20/20 16/22/22 21/23/23 20/21/21
f 16/22/22 17/24/24 22/25/25 21/23/23
f 18/19/19 19/18/18 24/26/26 23/27/27
f 19/18/18 20/21/21 25/28/28 24/26/26
f 20/21/21 21/23/23 26/29/29 25/28/28
f 21/23/23 22/25/25 27/30/30 26/29/29
f 2/31/31 1/32/32 23/27/33 24/26/34
f 1/33/35 6/34/36 18/35/37 23/36/38
f 6/34/36 8/37/39 13/38/40 18/35/41
f 8/39/42 9/40/43 14/17/44 13/16/45
f 9/40/43 10/41/46 15/20/47 14/17/48
f 10/41/46 11/42/49 16/22/50 15/20/51
f 11/42/49 12/43/52 17/24/53 16/22/54
f 12/44/55 7/45/56 22/46/57 17/47/58
f 7/45/56 5/48/59 27/49/60 22/46/61
f 5/50/62 4/51/63 26/29/64 27/30/65
f 4/51/63 3/52/66 25/28/67 26/29/68
f 3/52/66 2/31/31 24/26/69 25/28/70
f 1/32/32 2/31/31 29/53/71 28/54/72
f 6/34/36 1/33/35 28/55/73 30/56/74
f 2/31/31 3/52/66 31/57/75 29/53/71
f 3/52/66 4/51/63 32/58/76 31/57/75
f 4/51/63 5/50/62 33/59/77 32/58/76
f 5/48/59 7/45/56 34/60/78 33/61/79
f 9/40/43 8/39/42 36/62/80 35/63/81
f 8/37/39 6/34/36 30/56/74 36/64/82
f 10/41/46 9/40/43 35/63/81 37/65/83
f 11/42/49 10/41/46 37/65/83 38/66/84
f 7/45/56 12/44/55 39/67/85 34/60/78
f 12/43/52 11/42/49 38/66/84 39/68/86
f 28/54/72 29/53/71 41/69/87 40/70/88
f 30/56/74 28/55/73 40/71/89 43/72/90
f 29/53/71 31/57/75 44/73/91 41/69/87
f 31/57/75 32/58/76 46/74/92 44/73/91
f 32/58/76 33/59/77 48/75/93 46/74/92
f 33/61/79 34/60/78 49/76/94 48/77/95
f 35/63/81 36/62/80 51/78/96 50/79/97
f 36/64/82 30/56/74 43/72/90 51/80/98
f 37/65/83 35/63/81 50/79/97 52/81/99
f 38/66/84 37/65/83 52/81/99 53/82/100
f 34/60/78 39/67/85 54/83/101 49/76/94
f 39/68/86 38/66/84 53/82/100 54/84/102
