# This file uses centimeters as units for non-parametric coordinates.

v 24.500000 -1.500000 72.000000
v 25.500000 -1.500000 72.000000
v 26.500000 -1.500000 72.000000
v 24.500000 -0.500000 72.000000
v 25.500000 -0.500000 72.000000
v 26.500000 -0.500000 72.000000
v 24.500000 -0.500000 71.000000
v 25.500000 -0.500000 71.000000
v 26.500000 -0.500000 71.000000
v 24.500000 -0.500000 70.000000
v 25.500000 -0.500000 70.000000
v 26.500000 -0.500000 70.000000
v 24.500000 -1.500000 70.000000
v 25.500000 -1.500000 70.000000
v 26.500000 -1.500000 70.000000
v 24.500000 -1.500000 71.000000
v 25.500000 -1.500000 71.000000
v 26.500000 -1.500000 71.000000
vt 0.634034 1.112792
vt 0.620799 1.112792
vt 0.620799 1.099557
vt 0.634034 1.099557
vt 0.607564 1.112792
vt 0.607564 1.099557
vt 0.620799 1.086322
vt 0.634034 1.086322
vt 0.607564 1.086322
vt 0.634034 1.222284
vt 0.620799 1.222282
vt 0.620799 1.209047
vt 0.634034 1.209047
vt 0.607564 1.222281
vt 0.607564 1.209047
vt 0.620799 1.195812
vt 0.634034 1.195810
vt 0.607564 1.195813
vt 0.607561 1.182579
vt 0.620796 1.182577
vt 0.578605 1.380519
vt 0.578605 1.366389
vt 0.592736 1.366389
vt 0.592736 1.380519
vt 0.578605 1.352259
vt 0.592736 1.352259
vt 0.620795 1.235518
vt 0.607560 1.235514
vt 0.634030 1.235522
vt 0.611867 1.332333
vt 0.611867 1.318203
vt 0.625997 1.318203
vt 0.625997 1.332333
vt 0.611867 1.304072
vt 0.625997 1.304072
vt 0.634032 1.182574
vn 0.000000 1.000000 0.000000
vn 0.000000 1.000000 0.000000
vn 0.000000 1.000000 0.000000
vn 0.000000 1.000000 0.000000
vn 0.000000 1.000000 0.000000
vn 0.000000 1.000000 0.000000
vn 0.000000 1.000000 0.000000
vn 0.000000 1.000000 0.000000
vn 0.000000 1.000000 0.000000
vn 0.000000 -1.000000 0.000000
vn -0.000000 -1.000000 0.000000
vn -0.000000 -1.000000 -0.000000
vn 0.000000 -1.000000 0.000000
vn -0.000000 -1.000000 0.000000
vn -0.000000 -1.000000 0.000000
vn -0.000000 -1.000000 -0.000000
vn 0.000000 -1.000000 -0.000000
vn -0.000000 -1.000000 -0.000000
vn 0.000000 0.000000 1.000000
vn 0.000000 0.000000 1.000000
vn 0.000000 0.000000 1.000000
vn 0.000000 0.000000 1.000000
vn 1.000000 0.000000 0.000000
vn 1.000000 0.000000 0.000000
vn 1.000000 0.000000 0.000000
vn 1.000000 0.000000 0.000000
vn 1.000000 0.000000 0.000000
vn 1.000000 0.000000 0.000000
vn 1.000000 0.000000 0.000000
vn 1.000000 0.000000 0.000000
vn 0.000000 0.000000 -1.000000
vn 0.000000 0.000000 -1.000000
vn 0.000000 0.000000 -1.000000
vn 0.000000 0.000000 -1.000000
vn 0.000000 0.000000 -1.000000
vn 0.000000 0.000000 -1.000000
vn 0.000000 0.000000 -1.000000
vn 0.000000 0.000000 -1.000000
vn -1.000000 0.000000 0.000000
vn -1.000000 0.000000 0.000000
vn -1.000000 0.000000 0.000000
vn -1.000000 0.000000 0.000000
vn -1.000000 0.000000 0.000000
vn -1.000000 0.000000 0.000000
vn -1.000000 0.000000 0.000000
vn -1.000000 0.000000 0.000000
vn 0.000000 0.000000 1.000000
vn 0.000000 0.000000 1.000000
vn 0.000000 0.000000 1.000000
vn 0.000000 0.000000 1.000000
f 4/1/1 5/2/2 8/3/3 7/4/4
f 5/2/2 6/5/5 9/6/6 8/3/3
f 7/4/4 8/3/3 11/7/7 10/8/8
f 8/3/3 9/6/6 12/9/9 11/7/7
f 13/10/10 14/11/11 17/12/12 16/13/13
f 14/11/11 15/14/14 18/15/15 17/12/12
f 16/13/13 17/12/12 2/16/16 1/17/17
f 17/12/12 18/15/15 3/18/18 2/16/16
f 2/16/19 3/18/20 6/19/21 5/20/22
f 3/21/23 18/22/24 9/23/25 6/24/26
f 18/22/27 15/25/28 12/26/29 9/23/30
f 15/14/31 14/11/32 11/27/33 12/28/34
f 14/11/35 13/10/36 10/29/37 11/27/38
f 13/30/39 16/31/40 7/32/41 10/33/42
f 16/31/43 1/34/44 4/35/45 7/32/46
f 1/17/47 2/16/48 5/20/49 4/36/50
