# This file uses centimeters as units for non-parametric coordinates.

v 66.500000 -1.000000 72.000000
v 67.500000 -1.000000 72.000000
v 68.500000 -1.000000 72.000000
v 69.500000 -1.000000 72.000000
v 70.500000 -1.000000 72.000000
v 71.500000 -1.000000 72.000000
v 72.500000 -1.000000 72.000000
v 66.500000 0.000000 72.000000
v 67.500000 0.000000 72.000000
v 68.500000 0.000000 72.000000
v 69.500000 0.000000 72.000000
v 70.500000 0.000000 72.000000
v 71.500000 0.000000 72.000000
v 72.500000 0.000000 72.000000
v 66.500000 0.000000 71.000000
v 67.500000 0.000000 71.000000
v 68.500000 0.000000 71.000000
v 69.500000 0.000000 71.000000
v 70.500000 0.000000 71.000000
v 71.500000 0.000000 71.000000
v 72.500000 0.000000 71.000000
v 66.500000 0.000000 70.000000
v 67.500000 0.000000 70.000000
v 68.500000 0.000000 70.000000
v 69.500000 0.000000 70.000000
v 70.500000 0.000000 70.000000
v 71.500000 0.000000 70.000000
v 72.500000 0.000000 70.000000
v 66.500000 0.000000 69.000000
v 67.500000 0.000000 69.000000
v 68.500000 0.000000 69.000000
v 69.500000 0.000000 69.000000
v 70.500000 0.000000 69.000000
v 71.500000 0.000000 69.000000
v 72.500000 0.000000 69.000000
v 66.500000 0.000000 68.000000
v 67.500000 0.000000 68.000000
v 68.500000 0.000000 68.000000
v 69.500000 0.000000 68.000000
v 70.500000 0.000000 68.000000
v 71.500000 0.000000 68.000000
v 72.500000 0.000000 68.000000
v 66.500000 0.000000 67.000000
v 67.500000 0.000000 67.000000
v 68.500000 0.000000 67.000000
v 69.500000 0.000000 67.000000
v 70.500000 0.000000 67.000000
v 71.500000 0.000000 67.000000
v 72.500000 0.000000 67.000000
v 66.500000 0.000000 66.000000
v 67.500000 0.000000 66.000000
v 68.500000 0.000000 66.000000
v 69.500000 0.000000 66.000000
v 70.500000 0.000000 66.000000
v 71.500000 0.000000 66.000000
v 72.500000 0.000000 66.000000
v 68.500000 0.000000 65.000000
v 69.500000 0.000000 65.000000
v 68.500000 -1.000000 65.000000
v 69.500000 -1.000000 65.000000
v 66.500000 -1.000000 66.000000
v 67.500000 -1.000000 66.000000
v 68.500000 -1.000000 66.000000
v 69.500000 -1.000000 66.000000
v 70.500000 -1.000000 66.000000
v 71.500000 -1.000000 66.000000
v 72.500000 -1.000000 66.000000
v 66.500000 -1.000000 67.000000
v 67.500000 -1.000000 67.000000
v 68.500000 -1.000000 67.000000
v 69.500000 -1.000000 67.000000
v 70.500000 -1.000000 67.000000
v 71.500000 -1.000000 67.000000
v 72.500000 -1.000000 67.000000
v 66.500000 -1.000000 68.000000
v 67.500000 -1.000000 68.000000
v 68.500000 -1.000000 68.000000
v 69.500000 -1.000000 68.000000
v 70.500000 -1.000000 68.000000
v 71.500000 -1.000000 68.000000
v 72.500000 -1.000000 68.000000
v 66.500000 -1.000000 69.000000
v 67.500000 -1.000000 69.000000
v 68.500000 -1.000000 69.000000
v 69.500000 -1.000000 69.000000
v 70.500000 -1.000000 69.000000
v 71.500000 -1.000000 69.000000
v 72.500000 -1.000000 69.000000
v 66.500000 -1.000000 70.000000
v 67.500000 -1.000000 70.000000
v 68.500000 -1.000000 70.000000
v 69.500000 -1.000000 70.000000
v 70.500000 -1.000000 70.000000
v 71.500000 -1.000000 70.000000
v 72.500000 -1.000000 70.000000
v 66.500000 -1.000000 71.000000
v 67.500000 -1.000000 71.000000
v 68.500000 -1.000000 71.000000
v 69.500000 -1.000000 71.000000
v 70.500000 -1.000000 71.000000
v 71.500000 -1.000000 71.000000
v 72.500000 -1.000000 71.000000
v 66.500000 1.000000 72.000000
v 67.500000 1.000000 72.000000
v 67.500000 1.000000 71.000000
v 66.500000 1.000000 71.000000
v 68.500000 1.000000 72.000000
v 68.500000 1.000000 71.000000
v 69.500000 1.000000 72.000000
v 69.500000 1.000000 71.000000
v 70.500000 1.000000 72.000000
v 70.500000 1.000000 71.000000
v 71.500000 1.000000 72.000000
v 71.500000 1.000000 71.000000
v 72.500000 1.000000 72.000000
v 72.500000 1.000000 71.000000
v 72.500000 1.000000 70.000000
v 71.500000 1.000000 70.000000
v 72.500000 1.000000 69.000000
v 71.500000 1.000000 69.000000
v 72.500000 1.000000 68.000000
v 71.500000 1.000000 68.000000
v 72.500000 1.000000 67.000000
v 71.500000 1.000000 67.000000
v 72.500000 1.000000 66.000000
v 71.500000 1.000000 66.000000
v 66.500000 2.000000 72.000000
v 67.500000 2.000000 72.000000
v 67.500000 2.000000 71.000000
v 66.500000 2.000000 71.000000
v 68.500000 2.000000 72.000000
v 68.500000 2.000000 71.000000
v 69.500000 2.000000 72.000000
v 69.500000 2.000000 71.000000
v 70.500000 2.000000 72.000000
v 70.500000 2.000000 71.000000
v 71.500000 2.000000 72.000000
v 71.500000 2.000000 71.000000
v 72.500000 2.000000 72.000000
v 72.500000 2.000000 71.000000
v 72.500000 2.000000 70.000000
v 71.500000 2.000000 70.000000
v 72.500000 2.000000 69.000000
v 71.500000 2.000000 69.000000
v 72.500000 2.000000 68.000000
v 71.500000 2.000000 68.000000
v 72.500000 2.000000 67.000000
v 71.500000 2.000000 67.000000
v 72.500000 2.000000 66.000000
v 71.500000 2.000000 66.000000
vt 0.097606 0.297514
vt 0.097606 0.310553
vt 0.084568 0.310553
vt 0.084568 0.297514
vt 0.097606 0.323592
vt 0.084568 0.323592
vt 0.097606 0.336631
vt 0.084568 0.336631
vt 0.097606 0.349670
vt 0.084568 0.349670
vt 0.097606 0.362709
vt 0.084568 0.362709
vt 0.097606 0.375748
vt 0.084568 0.375748
vt 0.084141 0.297514
vt 0.084141 0.310553
vt 0.071104 0.310553
vt 0.071104 0.297514
vt 0.084141 0.323592
vt 0.071104 0.323592
vt 0.084141 0.336631
vt 0.071104 0.336631
vt 0.084141 0.349670
vt 0.071104 0.349670
vt 0.084141 0.362709
vt 0.071104 0.362709
vt 0.071531 0.375748
vt 0.071531 0.362709
vt 0.058066 0.310553
vt 0.058066 0.297514
vt 0.058066 0.323592
vt 0.058066 0.336631
vt 0.058066 0.349670
vt 0.058066 0.362709
vt 0.058494 0.375748
vt 0.058494 0.362709
vt 0.045029 0.310553
vt 0.045029 0.297514
vt 0.045029 0.323592
vt 0.045029 0.336631
vt 0.045029 0.349670
vt 0.045029 0.362709
vt 0.045456 0.375748
vt 0.045456 0.362709
vt 0.031992 0.310553
vt 0.031992 0.297514
vt 0.031992 0.323592
vt 0.031992 0.336631
vt 0.031992 0.349670
vt 0.031992 0.362709
vt 0.032419 0.375748
vt 0.032419 0.362709
vt 0.018954 0.310553
vt 0.018954 0.297514
vt 0.018954 0.323592
vt 0.018954 0.336631
vt 0.018954 0.349670
vt 0.018954 0.362709
vt 0.019382 0.375748
vt 0.019382 0.362709
vt 0.005917 0.336631
vt 0.005917 0.323592
vt 0.006301 0.105785
vt 0.006301 0.092745
vt 0.019345 0.092745
vt 0.019345 0.105785
vt 0.019345 0.131864
vt 0.019345 0.118824
vt 0.032388 0.118824
vt 0.032388 0.131864
vt 0.032388 0.105785
vt 0.032388 0.092745
vt 0.019345 0.079706
vt 0.032388 0.079706
vt 0.019345 0.066666
vt 0.032388 0.066666
vt 0.019345 0.053626
vt 0.032388 0.053627
vt 0.045432 0.118824
vt 0.045432 0.131864
vt 0.045432 0.105785
vt 0.045432 0.092745
vt 0.045432 0.079706
vt 0.045432 0.066666
vt 0.045432 0.053627
vt 0.058475 0.118824
vt 0.058475 0.131864
vt 0.058475 0.105785
vt 0.058475 0.092745
vt 0.058475 0.079706
vt 0.058475 0.066666
vt 0.058475 0.053627
vt 0.071519 0.118824
vt 0.071519 0.131864
vt 0.071519 0.105785
vt 0.071519 0.092745
vt 0.071519 0.079706
vt 0.071519 0.066666
vt 0.071519 0.053627
vt 0.084562 0.118824
vt 0.084562 0.131864
vt 0.084562 0.105785
vt 0.084562 0.092745
vt 0.084562 0.079706
vt 0.084562 0.066666
vt 0.084562 0.053627
vt 0.097606 0.118824
vt 0.097606 0.131864
vt 0.097606 0.105785
vt 0.097606 0.092745
vt 0.097606 0.079706
vt 0.097606 0.066666
vt 0.097606 0.053627
vt 0.059733 0.458771
vt 0.059733 0.446206
vt 0.072299 0.446206
vt 0.072299 0.458771
vt 0.059733 0.433640
vt 0.072299 0.433640
vt 0.059733 0.421074
vt 0.072299 0.421074
vt 0.059733 0.408508
vt 0.072299 0.408508
vt 0.059733 0.395942
vt 0.072299 0.395942
vt 0.084562 0.040583
vt 0.097606 0.040583
vt 0.071519 0.040583
vt 0.058475 0.040583
vt 0.045432 0.040583
vt 0.032388 0.040583
vt 0.019345 0.040583
vt 0.081190 0.533175
vt 0.068624 0.533175
vt 0.068624 0.520609
vt 0.081190 0.520609
vt 0.056058 0.533175
vt 0.056058 0.520609
vt 0.043492 0.533175
vt 0.043492 0.520609
vt 0.006301 0.079702
vt 0.019345 0.079702
vt 0.067657 0.561930
vt 0.055092 0.561930
vt 0.055092 0.549365
vt 0.067657 0.549365
vt 0.019345 0.118828
vt 0.006301 0.118828
vt 0.037961 0.474508
vt 0.037961 0.487074
vt 0.025396 0.487074
vt 0.025396 0.474508
vt 0.037962 0.499640
vt 0.025396 0.499640
vt 0.032388 0.144907
vt 0.019345 0.144908
vt 0.045432 0.144908
vt 0.058475 0.144907
vt 0.071519 0.144907
vt 0.084562 0.144907
vt 0.097606 0.144907
vt 0.059733 0.471337
vt 0.072299 0.471337
vt 0.084864 0.458771
vt 0.084864 0.471337
vt 0.050457 0.446370
vt 0.050457 0.458935
vt 0.037891 0.458935
vt 0.037891 0.446370
vt 0.097606 0.157951
vt 0.084562 0.157951
vt 0.084864 0.446206
vt 0.050457 0.433804
vt 0.037891 0.433804
vt 0.084864 0.433640
vt 0.050457 0.421238
vt 0.037891 0.421238
vt 0.084864 0.421074
vt 0.050457 0.408672
vt 0.037891 0.408672
vt 0.084864 0.408508
vt 0.050457 0.396107
vt 0.037891 0.396107
vt 0.084864 0.395942
vt 0.084562 0.027540
vt 0.097606 0.027540
vt 0.071519 0.027540
vt 0.017151 0.602543
vt 0.017151 0.589978
vt 0.029717 0.589978
vt 0.029717 0.602543
vt 0.058475 0.027539
vt 0.017151 0.615109
vt 0.029717 0.615109
vt 0.045432 0.027539
vt 0.017151 0.627675
vt 0.029717 0.627675
vt 0.032388 0.027539
vt 0.017151 0.640241
vt 0.029717 0.640241
vt 0.019345 0.027539
vt 0.068624 0.508043
vt 0.081190 0.508043
vt 0.017151 0.652807
vt 0.029717 0.652807
vt 0.097430 0.458771
vt 0.097430 0.471337
vt 0.025325 0.458935
vt 0.025325 0.446370
vt 0.097606 0.170994
vt 0.084563 0.170994
vt 0.097430 0.446206
vt 0.025325 0.433804
vt 0.097430 0.433640
vt 0.025325 0.421238
vt 0.097430 0.421074
vt 0.025325 0.408672
vt 0.097430 0.408508
vt 0.025325 0.396107
vt 0.097430 0.395942
vt 0.084563 0.014496
vt 0.097606 0.014496
vt 0.071519 0.014496
vt 0.042282 0.589978
vt 0.042282 0.602543
vt 0.058475 0.014496
vt 0.042282 0.615109
vt 0.045432 0.014496
vt 0.042282 0.627675
vt 0.032388 0.014496
vt 0.042282 0.640241
vt 0.019345 0.014496
vt 0.068624 0.495477
vt 0.081190 0.495477
vt 0.042282 0.652807
vn 0.000000 1.000000 0.000000
vn 0.000000 1.000000 0.000000
vn 0.000000 1.000000 0.000000
vn 0.000000 1.000000 0.000000
vn 0.000000 1.000000 0.000000
vn 0.000000 1.000000 0.000000
vn 0.000000 1.000000 0.000000
vn 0.000000 1.000000 0.000000
vn 0.000000 1.000000 0.000000
vn 0.000000 1.000000 0.000000
vn 0.000000 1.000000 0.000000
vn 0.000000 1.000000 0.000000
vn 0.000000 1.000000 0.000000
vn 0.000000 1.000000 0.000000
vn 0.000000 1.000000 0.000000
vn 0.000000 1.000000 0.000000
vn 0.000000 1.000000 0.000000
vn 0.000000 1.000000 0.000000
vn 0.000000 1.000000 0.000000
vn 0.000000 1.000000 0.000000
vn 0.000000 1.000000 0.000000
vn 0.000000 1.000000 0.000000
vn 0.000000 1.000000 0.000000
vn 0.000000 1.000000 0.000000
vn 0.000000 1.000000 0.000000
vn 0.000000 1.000000 0.000000
vn 0.000000 1.000000 0.000000
vn 0.000000 1.000000 0.000000
vn 0.000000 1.000000 0.000000
vn 0.000000 1.000000 0.000000
vn 0.000000 1.000000 0.000000
vn 0.000000 1.000000 0.000000
vn 0.000000 1.000000 0.000000
vn 0.000000 1.000000 0.000000
vn 0.000000 1.000000 0.000000
vn 0.000000 1.000000 0.000000
vn 0.000000 1.000000 0.000000
vn 0.000000 1.000000 0.000000
vn 0.000000 1.000000 0.000000
vn 0.000000 1.000000 0.000000
vn 0.000000 1.000000 0.000000
vn 0.000000 1.000000 0.000000
vn 0.000000 1.000000 0.000000
vn 0.000000 1.000000 0.000000
vn 0.000000 1.000000 0.000000
vn 0.000000 1.000000 0.000000
vn 0.000000 1.000000 0.000000
vn 0.000000 1.000000 0.000000
vn 0.000000 1.000000 0.000000
vn 0.000000 1.000000 0.000000
vn 0.000000 1.000000 0.000000
vn 0.000000 1.000000 0.000000
vn 0.000000 1.000000 0.000000
vn 0.000000 1.000000 0.000000
vn 0.000000 1.000000 0.000000
vn 0.000000 1.000000 0.000000
vn 0.000000 1.000000 0.000000
vn 0.000000 1.000000 0.000000
vn 0.000000 1.000000 0.000000
vn 0.000000 1.000000 0.000000
vn 0.000000 1.000000 0.000000
vn 0.000000 1.000000 0.000000
vn 0.000000 -1.000000 0.000000
vn 0.000000 -1.000000 0.000000
vn 0.000000 -1.000000 0.000000
vn 0.000000 -1.000000 0.000000
vn 0.000000 -1.000000 0.000000
vn 0.000000 -1.000000 0.000000
vn 0.000000 -1.000000 0.000000
vn 0.000000 -1.000000 0.000000
vn 0.000000 -1.000000 0.000000
vn 0.000000 -1.000000 0.000000
vn 0.000000 -1.000000 0.000000
vn 0.000000 -1.000000 0.000000
vn 0.000000 -1.000000 0.000000
vn 0.000000 -1.000000 0.000000
vn 0.000000 -1.000000 0.000000
vn 0.000000 -1.000000 0.000000
vn 0.000000 -1.000000 0.000000
vn 0.000000 -1.000000 0.000000
vn 0.000000 -1.000000 0.000000
vn 0.000000 -1.000000 0.000000
vn 0.000000 -1.000000 0.000000
vn 0.000000 -1.000000 0.000000
vn 0.000000 -1.000000 0.000000
vn 0.000000 -1.000000 0.000000
vn 0.000000 -1.000000 0.000000
vn 0.000000 -1.000000 0.000000
vn 0.000000 -1.000000 0.000000
vn 0.000000 -1.000000 0.000000
vn 0.000000 -1.000000 0.000000
vn 0.000000 -1.000000 0.000000
vn 0.000000 -1.000000 0.000000
vn 0.000000 -1.000000 0.000000
vn 0.000000 -1.000000 0.000000
vn 0.000000 -1.000000 0.000000
vn 0.000000 -1.000000 0.000000
vn 0.000000 -1.000000 0.000000
vn 0.000000 -1.000000 0.000000
vn 0.000000 -1.000000 0.000000
vn 0.000000 -1.000000 0.000000
vn 0.000000 -1.000000 0.000000
vn 0.000000 -1.000000 0.000000
vn 0.000000 -1.000000 0.000000
vn 0.000000 -1.000000 0.000000
vn 0.000000 -1.000000 0.000000
vn 0.000000 -1.000000 0.000000
vn 0.000000 -1.000000 0.000000
vn 0.000000 -1.000000 0.000000
vn 0.000000 -1.000000 0.000000
vn 0.000000 -1.000000 0.000000
vn 0.000000 -1.000000 0.000000
vn 0.000000 -1.000000 0.000000
vn 0.000000 0.000000 1.000000
vn 0.000000 0.000000 1.000000
vn 0.000000 0.000000 1.000000
vn 0.000000 0.000000 1.000000
vn 0.000000 0.000000 1.000000
vn 0.000000 0.000000 1.000000
vn 0.000000 0.000000 1.000000
vn 0.000000 0.000000 1.000000
vn 0.000000 0.000000 1.000000
vn 0.000000 0.000000 1.000000
vn 0.000000 0.000000 1.000000
vn 0.000000 0.000000 1.000000
vn 0.000000 0.000000 1.000000
vn 0.000000 0.000000 1.000000
vn 0.000000 0.000000 1.000000
vn 0.000000 0.000000 1.000000
vn 1.000000 0.000000 0.000000
vn 1.000000 0.000000 0.000000
vn 1.000000 0.000000 0.000000
vn 1.000000 0.000000 0.000000
vn 1.000000 0.000000 0.000000
vn 1.000000 0.000000 0.000000
vn 1.000000 0.000000 0.000000
vn 1.000000 0.000000 0.000000
vn 1.000000 0.000000 0.000000
vn 1.000000 0.000000 0.000000
vn 1.000000 0.000000 0.000000
vn 1.000000 0.000000 0.000000
vn 1.000000 0.000000 0.000000
vn 1.000000 0.000000 0.000000
vn 1.000000 0.000000 0.000000
vn 1.000000 0.000000 0.000000
vn 1.000000 0.000000 0.000000
vn 1.000000 0.000000 0.000000
vn 1.000000 0.000000 0.000000
vn 0.000000 0.000000 -1.000000
vn 0.000000 0.000000 -1.000000
vn 0.000000 0.000000 -1.000000
vn 0.000000 0.000000 -1.000000
vn 0.000000 0.000000 -1.000000
vn 0.000000 0.000000 -1.000000
vn 0.000000 0.000000 -1.000000
vn 0.000000 0.000000 -1.000000
vn 0.000000 0.000000 -1.000000
vn 0.000000 0.000000 -1.000000
vn 0.000000 0.000000 -1.000000
vn 0.000000 0.000000 -1.000000
vn 1.000000 0.000000 0.000000
vn 1.000000 0.000000 0.000000
vn 1.000000 0.000000 0.000000
vn 1.000000 0.000000 0.000000
vn 0.000000 0.000000 -1.000000
vn 0.000000 0.000000 -1.000000
vn 0.000000 0.000000 -1.000000
vn 0.000000 0.000000 -1.000000
vn -1.000000 0.000000 0.000000
vn -1.000000 0.000000 0.000000
vn -1.000000 0.000000 0.000000
vn -1.000000 0.000000 0.000000
vn 0.000000 0.000000 -1.000000
vn 0.000000 0.000000 -1.000000
vn 0.000000 0.000000 -1.000000
vn 0.000000 0.000000 -1.000000
vn 0.000000 0.000000 -1.000000
vn 0.000000 0.000000 -1.000000
vn 0.000000 0.000000 -1.000000
vn 0.000000 0.000000 -1.000000
vn -1.000000 0.000000 0.000000
vn -1.000000 0.000000 0.000000
vn -1.000000 0.000000 0.000000
vn -1.000000 0.000000 0.000000
vn -1.000000 0.000000 0.000000
vn -1.000000 0.000000 0.000000
vn -1.000000 0.000000 0.000000
vn -1.000000 0.000000 0.000000
vn -1.000000 0.000000 0.000000
vn -1.000000 0.000000 0.000000
vn -1.000000 0.000000 0.000000
vn -1.000000 0.000000 0.000000
vn -1.000000 0.000000 0.000000
vn -1.000000 0.000000 0.000000
vn -1.000000 0.000000 0.000000
vn -1.000000 0.000000 0.000000
vn -1.000000 0.000000 0.000000
vn -1.000000 0.000000 0.000000
vn -1.000000 0.000000 0.000000
vn -1.000000 0.000000 0.000000
vn -1.000000 0.000000 0.000000
vn -1.000000 0.000000 0.000000
vn -1.000000 0.000000 0.000000
vn -1.000000 0.000000 0.000000
vn 0.000000 0.000000 1.000000
vn 0.000000 0.000000 1.000000
vn 0.000000 0.000000 1.000000
vn 0.000000 0.000000 1.000000
vn 0.000000 0.000000 1.000000
vn 0.000000 0.000000 -1.000000
vn 0.000000 0.000000 -1.000000
vn 0.000000 0.000000 -1.000000
vn 0.000000 0.000000 -1.000000
vn -1.000000 0.000000 0.000000
vn -1.000000 0.000000 0.000000
vn 0.000000 0.000000 1.000000
vn 0.000000 0.000000 -1.000000
vn 0.000000 0.000000 -1.000000
vn 0.000000 0.000000 1.000000
vn 0.000000 0.000000 -1.000000
vn 0.000000 0.000000 -1.000000
vn 0.000000 0.000000 1.000000
vn 0.000000 0.000000 -1.000000
vn 0.000000 0.000000 -1.000000
vn 0.000000 0.000000 1.000000
vn 0.000000 0.000000 -1.000000
vn 0.000000 0.000000 -1.000000
vn 0.000000 0.000000 1.000000
vn 1.000000 0.000000 0.000000
vn 1.000000 0.000000 0.000000
vn 1.000000 0.000000 0.000000
vn -1.000000 0.000000 0.000000
vn -1.000000 0.000000 0.000000
vn -1.000000 0.000000 0.000000
vn -1.000000 0.000000 0.000000
vn 1.000000 0.000000 0.000000
vn -1.000000 0.000000 0.000000
vn -1.000000 0.000000 0.000000
vn 1.000000 0.000000 0.000000
vn -1.000000 0.000000 0.000000
vn -1.000000 0.000000 0.000000
vn 1.000000 0.000000 0.000000
vn -1.000000 0.000000 0.000000
vn -1.000000 0.000000 0.000000
vn 1.000000 0.000000 0.000000
vn 0.000000 0.000000 -1.000000
vn 0.000000 0.000000 -1.000000
vn -1.000000 0.000000 0.000000
vn -1.000000 0.000000 0.000000
vn 0.000000 0.000000 1.000000
vn 0.000000 0.000000 1.000000
vn 0.000000 0.000000 -1.000000
vn 0.000000 0.000000 -1.000000
vn -1.000000 0.000000 0.000000
vn -1.000000 0.000000 0.000000
vn 0.000000 0.000000 1.000000
vn 0.000000 0.000000 -1.000000
vn 0.000000 0.000000 1.000000
vn 0.000000 0.000000 -1.000000
vn 0.000000 0.000000 1.000000
vn 0.000000 0.000000 -1.000000
vn 0.000000 0.000000 1.000000
vn 0.000000 0.000000 -1.000000
vn 0.000000 0.000000 1.000000
vn 1.000000 0.000000 0.000000
vn 1.000000 0.000000 0.000000
vn 1.000000 0.000000 0.000000
vn -1.000000 0.000000 0.000000
vn -1.000000 0.000000 0.000000
vn 1.000000 0.000000 0.000000
vn -1.000000 0.000000 0.000000
vn 1.000000 0.000000 0.000000
vn -1.000000 0.000000 0.000000
vn 1.000000 0.000000 0.000000
vn -1.000000 0.000000 0.000000
vn 1.000000 0.000000 0.000000
vn 0.000000 0.000000 -1.000000
vn 0.000000 0.000000 -1.000000
vn -1.000000 0.000000 0.000000
f 127/1/1 128/2/2 129/3/3 130/4/4
f 128/2/2 131/5/5 132/6/6 129/3/3
f 131/5/5 133/7/7 134/8/8 132/6/6
f 133/7/7 135/9/9 136/10/10 134/8/8
f 135/9/9 137/11/11 138/12/12 136/10/10
f 137/11/11 139/13/13 140/14/14 138/12/12
f 15/15/15 16/16/16 23/17/17 22/18/18
f 16/16/16 17/19/19 24/20/20 23/17/17
f 17/19/19 18/21/21 25/22/22 24/20/20
f 18/21/21 19/23/23 26/24/24 25/22/22
f 19/23/23 20/25/25 27/26/26 26/24/24
f 138/12/12 140/14/14 141/27/27 142/28/28
f 22/18/18 23/17/17 30/29/29 29/30/30
f 23/17/17 24/20/20 31/31/31 30/29/29
f 24/20/20 25/22/22 32/32/32 31/31/31
f 25/22/22 26/24/24 33/33/33 32/32/32
f 26/24/24 27/26/26 34/34/34 33/33/33
f 142/28/28 141/27/27 143/35/35 144/36/36
f 29/30/30 30/29/29 37/37/37 36/38/38
f 30/29/29 31/31/31 38/39/39 37/37/37
f 31/31/31 32/32/32 39/40/40 38/39/39
f 32/32/32 33/33/33 40/41/41 39/40/40
f 33/33/33 34/34/34 41/42/42 40/41/41
f 144/36/36 143/35/35 145/43/43 146/44/44
f 36/38/38 37/37/37 44/45/45 43/46/46
f 37/37/37 38/39/39 45/47/47 44/45/45
f 38/39/39 39/40/40 46/48/48 45/47/47
f 39/40/40 40/41/41 47/49/49 46/48/48
f 40/41/41 41/42/42 48/50/50 47/49/49
f 146/44/44 145/43/43 147/51/51 148/52/52
f 43/46/46 44/45/45 51/53/53 50/54/54
f 44/45/45 45/47/47 52/55/55 51/53/53
f 45/47/47 46/48/48 53/56/56 52/55/55
f 46/48/48 47/49/49 54/57/57 53/56/56
f 47/49/49 48/50/50 55/58/58 54/57/57
f 148/52/52 147/51/51 149/59/59 150/60/60
f 52/55/55 53/56/56 58/61/61 57/62/62
f 59/63/63 60/64/64 64/65/65 63/66/66
f 61/67/67 62/68/68 69/69/69 68/70/70
f 62/68/68 63/66/66 70/71/71 69/69/69
f 63/66/66 64/65/65 71/72/72 70/71/71
f 64/65/65 65/73/73 72/74/74 71/72/72
f 65/73/73 66/75/75 73/76/76 72/74/74
f 66/75/75 67/77/77 74/78/78 73/76/76
f 68/70/70 69/69/69 76/79/79 75/80/80
f 69/69/69 70/71/71 77/81/81 76/79/79
f 70/71/71 71/72/72 78/82/82 77/81/81
f 71/72/72 72/74/74 79/83/83 78/82/82
f 72/74/74 73/76/76 80/84/84 79/83/83
f 73/76/76 74/78/78 81/85/85 80/84/84
f 75/80/80 76/79/79 83/86/86 82/87/87
f 76/79/79 77/81/81 84/88/88 83/86/86
f 77/81/81 78/82/82 85/89/89 84/88/88
f 78/82/82 79/83/83 86/90/90 85/89/89
f 79/83/83 80/84/84 87/91/91 86/90/90
f 80/84/84 81/85/85 88/92/92 87/91/91
f 82/87/87 83/86/86 90/93/93 89/94/94
f 83/86/86 84/88/88 91/95/95 90/93/93
f 84/88/88 85/89/89 92/96/96 91/95/95
f 85/89/89 86/90/90 93/97/97 92/96/96
f 86/90/90 87/91/91 94/98/98 93/97/97
f 87/91/91 88/92/92 95/99/99 94/98/98
f 89/94/94 90/93/93 97/100/100 96/101/101
f 90/93/93 91/95/95 98/102/102 97/100/100
f 91/95/95 92/96/96 99/103/103 98/102/102
f 92/96/96 93/97/97 100/104/104 99/103/103
f 93/97/97 94/98/98 101/105/105 100/104/104
f 94/98/98 95/99/99 102/106/106 101/105/105
f 96/101/101 97/100/100 2/107/107 1/108/108
f 97/100/100 98/102/102 3/109/109 2/107/107
f 98/102/102 99/103/103 4/110/110 3/109/109
f 99/103/103 100/104/104 5/111/111 4/110/110
f 100/104/104 101/105/105 6/112/112 5/111/111
f 101/105/105 102/106/106 7/113/113 6/112/112
f 2/114/114 3/115/115 10/116/116 9/117/117
f 3/115/118 4/118/119 11/119/120 10/116/116
f 4/118/121 5/120/122 12/121/123 11/119/120
f 5/120/124 6/122/125 13/123/126 12/121/123
f 6/122/127 7/124/128 14/125/129 13/123/126
f 7/113/130 102/106/131 21/126/132 14/127/133
f 102/106/134 95/99/135 28/128/136 21/126/132
f 95/99/137 88/92/138 35/129/139 28/128/136
f 88/92/140 81/85/141 42/130/142 35/129/139
f 81/85/143 74/78/144 49/131/145 42/130/142
f 74/78/146 67/77/147 56/132/148 49/131/145
f 67/133/149 66/134/150 55/135/151 56/136/152
f 66/134/153 65/137/154 54/138/155 55/135/156
f 65/137/157 64/139/158 53/140/159 54/138/160
f 64/65/161 60/64/162 58/141/163 53/142/164
f 60/143/165 59/144/166 57/145/167 58/146/168
f 59/63/169 63/66/170 52/147/171 57/148/172
f 63/149/173 62/150/174 51/151/175 52/152/176
f 62/150/177 61/153/178 50/154/179 51/151/180
f 61/67/181 68/70/182 43/155/183 50/156/184
f 68/70/185 75/80/186 36/157/187 43/155/188
f 75/80/189 82/87/190 29/158/191 36/157/192
f 82/87/193 89/94/194 22/159/195 29/158/196
f 89/94/197 96/101/198 15/160/199 22/159/200
f 96/101/201 1/108/202 8/161/203 15/160/204
f 1/162/205 2/114/206 9/117/117 8/163/207
f 8/163/207 9/117/117 104/164/208 103/165/209
f 16/166/210 15/167/211 106/168/212 105/169/213
f 15/160/204 8/161/203 103/170/214 106/171/215
f 9/117/117 10/116/116 107/172/216 104/164/208
f 17/173/217 16/166/210 105/169/213 108/174/218
f 10/116/116 11/119/120 109/175/219 107/172/216
f 18/176/220 17/173/217 108/174/218 110/177/221
f 11/119/120 12/121/123 111/178/222 109/175/219
f 19/179/223 18/176/220 110/177/221 112/180/224
f 12/121/123 13/123/126 113/181/225 111/178/222
f 20/182/226 19/179/223 112/180/224 114/183/227
f 13/123/126 14/125/129 115/184/228 113/181/225
f 14/127/133 21/126/132 116/185/229 115/186/230
f 21/126/132 28/128/136 117/187/231 116/185/229
f 27/188/232 20/189/233 114/190/234 118/191/235
f 28/128/136 35/129/139 119/192/236 117/187/231
f 34/193/237 27/188/232 118/191/235 120/194/238
f 35/129/139 42/130/142 121/195/239 119/192/236
f 41/196/240 34/193/237 120/194/238 122/197/241
f 42/130/142 49/131/145 123/198/242 121/195/239
f 48/199/243 41/196/240 122/197/241 124/200/244
f 49/131/145 56/132/148 125/201/245 123/198/242
f 56/136/152 55/135/151 126/202/246 125/203/247
f 55/204/248 48/199/243 124/200/244 126/205/249
f 103/165/209 104/164/208 128/206/250 127/207/251
f 105/169/213 106/168/212 130/208/252 129/209/253
f 106/171/215 103/170/214 127/210/254 130/211/255
f 104/164/208 107/172/216 131/212/256 128/206/250
f 108/174/218 105/169/213 129/209/253 132/213/257
f 107/172/216 109/175/219 133/214/258 131/212/256
f 110/177/221 108/174/218 132/213/257 134/215/259
f 109/175/219 111/178/222 135/216/260 133/214/258
f 112/180/224 110/177/221 134/215/259 136/217/261
f 111/178/222 113/181/225 137/218/262 135/216/260
f 114/183/227 112/180/224 136/217/261 138/219/263
f 113/181/225 115/184/228 139/220/264 137/218/262
f 115/186/230 116/185/229 140/221/265 139/222/266
f 116/185/229 117/187/231 141/223/267 140/221/265
f 118/191/235 114/190/234 138/224/268 142/225/269
f 117/187/231 119/192/236 143/226/270 141/223/267
f 120/194/238 118/191/235 142/225/269 144/227/271
f 119/192/236 121/195/239 145/228/272 143/226/270
f 122/197/241 120/194/238 144/227/271 146/229/273
f 121/195/239 123/198/242 147/230/274 145/228/272
f 124/200/244 122/197/241 146/229/273 148/231/275
f 123/198/242 125/201/245 149/232/276 147/230/274
f 125/203/247 126/202/246 150/233/277 149/234/278
f 126/205/249 124/200/244 148/231/275 150/235/279
