# This file uses centimeters as units for non-parametric coordinates.

v 18.500000 0.000000 72.000000
v 19.500000 0.000000 72.000000
v 20.500000 0.000000 72.000000
v 18.500000 1.000000 72.000000
v 19.500000 1.000000 72.000000
v 20.500000 1.000000 72.000000
v 18.500000 1.000000 71.000000
v 19.500000 1.000000 71.000000
v 20.500000 1.000000 71.000000
v 18.500000 1.000000 70.000000
v 19.500000 1.000000 70.000000
v 20.500000 1.000000 70.000000
v 18.500000 0.000000 70.000000
v 19.500000 0.000000 70.000000
v 20.500000 0.000000 70.000000
v 18.500000 0.000000 71.000000
v 19.500000 0.000000 71.000000
v 20.500000 0.000000 71.000000
vt 0.713446 1.112792
vt 0.700211 1.112792
vt 0.700211 1.099557
vt 0.713446 1.099557
vt 0.686976 1.112792
vt 0.686976 1.099557
vt 0.700211 1.086322
vt 0.713446 1.086322
vt 0.686976 1.086322
vt 0.713446 1.222284
vt 0.700211 1.222282
vt 0.700211 1.209047
vt 0.713446 1.209047
vt 0.686976 1.222281
vt 0.686976 1.209047
vt 0.700211 1.195812
vt 0.713446 1.195812
vt 0.686976 1.195812
vt 0.686976 1.182576
vt 0.700211 1.182576
vt 0.692932 1.470008
vt 0.692932 1.455877
vt 0.707062 1.455877
vt 0.707062 1.470008
vt 0.692932 1.441747
vt 0.707062 1.441747
vt 0.700208 1.235518
vt 0.686973 1.235515
vt 0.713443 1.235521
vt 0.693152 1.377765
vt 0.693152 1.363635
vt 0.707282 1.363635
vt 0.707282 1.377765
vt 0.693152 1.349505
vt 0.707282 1.349505
vt 0.713446 1.182576
vn 0.000000 1.000000 0.000000
vn 0.000000 1.000000 0.000000
vn 0.000000 1.000000 0.000000
vn 0.000000 1.000000 0.000000
vn 0.000000 1.000000 0.000000
vn 0.000000 1.000000 0.000000
vn 0.000000 1.000000 0.000000
vn 0.000000 1.000000 0.000000
vn 0.000000 1.000000 0.000000
vn 0.000000 -1.000000 0.000000
vn 0.000000 -1.000000 0.000000
vn 0.000000 -1.000000 0.000000
vn 0.000000 -1.000000 0.000000
vn 0.000000 -1.000000 0.000000
vn 0.000000 -1.000000 0.000000
vn 0.000000 -1.000000 0.000000
vn 0.000000 -1.000000 0.000000
vn 0.000000 -1.000000 0.000000
vn 0.000000 0.000000 1.000000
vn 0.000000 0.000000 1.000000
vn 0.000000 0.000000 1.000000
vn 0.000000 0.000000 1.000000
vn 1.000000 0.000000 0.000000
vn 1.000000 0.000000 0.000000
vn 1.000000 0.000000 0.000000
vn 1.000000 0.000000 0.000000
vn 1.000000 0.000000 0.000000
vn 1.000000 0.000000 0.000000
vn 1.000000 0.000000 0.000000
vn 1.000000 0.000000 0.000000
vn 0.000000 0.000000 -1.000000
vn 0.000000 0.000000 -1.000000
vn 0.000000 0.000000 -1.000000
vn 0.000000 0.000000 -1.000000
vn 0.000000 0.000000 -1.000000
vn 0.000000 0.000000 -1.000000
vn 0.000000 0.000000 -1.000000
vn 0.000000 0.000000 -1.000000
vn -1.000000 0.000000 0.000000
vn -1.000000 0.000000 0.000000
vn -1.000000 0.000000 0.000000
vn -1.000000 0.000000 0.000000
vn -1.000000 0.000000 0.000000
vn -1.000000 0.000000 0.000000
vn -1.000000 0.000000 0.000000
vn -1.000000 0.000000 0.000000
vn 0.000000 0.000000 1.000000
vn 0.000000 0.000000 1.000000
vn 0.000000 0.000000 1.000000
vn 0.000000 0.000000 1.000000
f 4/1/1 5/2/2 8/3/3 7/4/4
f 5/2/2 6/5/5 9/6/6 8/3/3
f 7/4/4 8/3/3 11/7/7 10/8/8
f 8/3/3 9/6/6 12/9/9 11/7/7
f 13/10/10 14/11/11 17/12/12 16/13/13
f 14/11/11 15/14/14 18/15/15 17/12/12
f 16/13/13 17/12/12 2/16/16 1/17/17
f 17/12/12 18/15/15 3/18/18 2/16/16
f 2/16/19 3/18/20 6/19/21 5/20/22
f 3/21/23 18/22/24 9/23/25 6/24/26
f 18/22/27 15/25/28 12/26/29 9/23/30
f 15/14/31 14/11/32 11/27/33 12/28/34
f 14/11/35 13/10/36 10/29/37 11/27/38
f 13/30/39 16/31/40 7/32/41 10/33/42
f 16/31/43 1/34/44 4/35/45 7/32/46
f 1/17/47 2/16/48 5/20/49 4/36/50
