# This file uses centimeters as units for non-parametric coordinates.

v 70.500000 0.000000 19.000000
v 71.500000 0.000000 19.000000
v 70.500000 0.000000 18.000000
v 71.500000 0.000000 18.000000
v 70.500000 0.000000 17.000000
v 71.500000 0.000000 17.000000
v 70.500000 0.000000 16.000000
v 71.500000 0.000000 16.000000
v 70.500000 0.000000 15.000000
v 71.500000 0.000000 15.000000
v 70.500000 0.000000 14.000000
v 71.500000 0.000000 14.000000
v 70.500000 0.000000 13.000000
v 71.500000 0.000000 13.000000
v 70.500000 -1.000000 13.000000
v 71.500000 -1.000000 13.000000
v 70.500000 -1.000000 14.000000
v 71.500000 -1.000000 14.000000
v 70.500000 -1.000000 15.000000
v 71.500000 -1.000000 15.000000
v 70.500000 -1.000000 16.000000
v 71.500000 -1.000000 16.000000
v 70.500000 -1.000000 17.000000
v 71.500000 -1.000000 17.000000
v 70.500000 -1.000000 18.000000
v 71.500000 -1.000000 18.000000
v 71.500000 -1.000000 19.000000
v 70.500000 1.000000 19.000000
v 71.500000 1.000000 19.000000
v 71.500000 1.000000 18.000000
v 70.500000 1.000000 18.000000
v 71.500000 1.000000 17.000000
v 70.500000 1.000000 17.000000
v 71.500000 1.000000 16.000000
v 70.500000 1.000000 16.000000
v 71.500000 1.000000 15.000000
v 70.500000 1.000000 15.000000
v 71.500000 1.000000 14.000000
v 70.500000 1.000000 14.000000
v 71.500000 1.000000 13.000000
v 70.500000 1.000000 13.000000
v 70.500000 2.000000 19.000000
v 71.500000 2.000000 19.000000
v 71.500000 2.000000 18.000000
v 70.500000 2.000000 18.000000
v 71.500000 2.000000 17.000000
v 70.500000 2.000000 17.000000
v 71.500000 2.000000 16.000000
v 70.500000 2.000000 16.000000
v 71.500000 2.000000 15.000000
v 70.500000 2.000000 15.000000
v 71.500000 2.000000 14.000000
v 70.500000 2.000000 14.000000
v 71.500000 2.000000 13.000000
v 70.500000 2.000000 13.000000
v 70.500000 0.000000 19.000000
v 70.500000 0.000000 19.000000
v 70.500000 0.000000 19.000000
v 70.500000 0.000000 13.000000
v 70.500000 0.000000 13.000000
v 70.500000 0.000000 13.000000
v 70.500000 -1.000000 13.000000
v 70.500000 -1.000000 13.000000
v 70.500000 -1.000000 19.000000
v 70.500000 -1.000000 19.000000
v 70.500000 -1.000000 19.000000
vt 0.305669 1.341180
vt 0.305669 1.354220
vt 0.292632 1.354220
vt 0.292632 1.341180
vt 0.279594 1.354220
vt 0.279594 1.341180
vt 0.266557 1.354220
vt 0.266557 1.341180
vt 0.253520 1.354220
vt 0.253520 1.341180
vt 0.240483 1.354220
vt 0.240483 1.341180
vt 0.227445 1.354220
vt 0.227445 1.341180
vt 0.227080 1.071216
vt 0.227080 1.058176
vt 0.240124 1.058177
vt 0.240123 1.071216
vt 0.253167 1.058177
vt 0.253167 1.071216
vt 0.266210 1.058177
vt 0.266210 1.071216
vt 0.279254 1.058177
vt 0.279254 1.071216
vt 0.292297 1.058177
vt 0.292297 1.071216
vt 0.305341 1.058177
vt 0.305341 1.071217
vt 0.240123 1.084260
vt 0.227080 1.084260
vt 0.227080 1.071216
vt 0.305341 1.084260
vt 0.292297 1.084260
vt 0.305341 1.071217
vt 0.279254 1.084260
vt 0.266210 1.084260
vt 0.253167 1.084260
vt 0.318923 1.408149
vt 0.331489 1.408149
vt 0.331489 1.420715
vt 0.318923 1.420715
vt 0.307919 1.404657
vt 0.295353 1.404657
vt 0.295353 1.392091
vt 0.307919 1.392091
vt 0.227080 1.045133
vt 0.240124 1.045133
vt 0.253167 1.045133
vt 0.266211 1.045133
vt 0.279254 1.045133
vt 0.292298 1.045133
vt 0.305341 1.045134
vt 0.295353 1.404657
vt 0.307919 1.404657
vt 0.307919 1.417222
vt 0.295353 1.417222
vt 0.292298 1.032090
vt 0.305341 1.032090
vt 0.305341 1.084260
vt 0.305341 1.097303
vt 0.292297 1.097303
vt 0.279254 1.032090
vt 0.279254 1.097303
vt 0.266211 1.032090
vt 0.266210 1.097303
vt 0.253167 1.032090
vt 0.253167 1.097303
vt 0.240124 1.032089
vt 0.240123 1.097303
vt 0.227080 1.032089
vt 0.331489 1.408149
vt 0.318923 1.408149
vt 0.318923 1.395583
vt 0.331489 1.395583
vt 0.227080 1.084260
vt 0.227080 1.097303
vt 0.307919 1.429788
vt 0.295353 1.429788
vt 0.292298 1.019047
vt 0.305341 1.019047
vt 0.305341 1.110347
vt 0.292297 1.110347
vt 0.279254 1.019046
vt 0.279254 1.110347
vt 0.266211 1.019046
vt 0.266210 1.110347
vt 0.253167 1.019046
vt 0.253167 1.110347
vt 0.240124 1.019046
vt 0.240123 1.110347
vt 0.227080 1.019046
vt 0.318923 1.383018
vt 0.331489 1.383018
vt 0.227080 1.110347
vn 0.000000 1.000000 0.000000
vn 0.000000 1.000000 0.000000
vn 0.000000 1.000000 0.000000
vn 0.000000 1.000000 0.000000
vn 0.000000 1.000000 0.000000
vn 0.000000 1.000000 0.000000
vn 0.000000 1.000000 0.000000
vn 0.000000 1.000000 0.000000
vn 0.000000 1.000000 0.000000
vn 0.000000 1.000000 0.000000
vn 0.000000 1.000000 0.000000
vn 0.000000 1.000000 0.000000
vn 0.000000 1.000000 0.000000
vn 0.000000 1.000000 0.000000
vn 0.000000 -1.000000 0.000000
vn 0.000000 -1.000000 0.000000
vn 0.000000 -1.000000 0.000000
vn 0.000000 -1.000000 0.000000
vn 0.000000 -1.000000 0.000000
vn 0.000000 -1.000000 0.000000
vn 0.000000 -1.000000 0.000000
vn 0.000000 -1.000000 0.000000
vn 0.000000 -1.000000 0.000000
vn 0.000000 -1.000000 0.000000
vn 0.000000 -1.000000 0.000000
vn 0.000000 -1.000000 0.000000
vn 0.000000 -1.000000 0.000000
vn 0.000000 -1.000000 0.000000
vn -1.000000 0.000000 0.000000
vn -1.000000 0.000000 0.000000
vn -1.000000 0.000000 0.000000
vn -1.000000 0.000000 0.000000
vn -1.000000 0.000000 0.000000
vn -1.000000 0.000000 0.000000
vn -1.000000 0.000000 0.000000
vn -1.000000 0.000000 0.000000
vn -1.000000 0.000000 0.000000
vn -1.000000 0.000000 0.000000
vn -1.000000 0.000000 0.000000
vn -1.000000 0.000000 0.000000
vn -1.000000 0.000000 0.000000
vn -1.000000 0.000000 0.000000
vn -1.000000 0.000000 0.000000
vn -1.000000 0.000000 0.000000
vn -1.000000 0.000000 0.000000
vn -1.000000 0.000000 0.000000
vn -1.000000 0.000000 0.000000
vn -1.000000 0.000000 0.000000
vn -1.000000 0.000000 0.000000
vn 0.000000 0.000000 -1.000000
vn 0.000000 0.000000 -1.000000
vn 0.000000 0.000000 -1.000000
vn 0.000000 0.000000 -1.000000
vn 0.000000 0.000000 1.000000
vn 0.000000 0.000000 1.000000
vn 0.000000 0.000000 1.000000
vn 0.000000 0.000000 1.000000
vn 1.000000 0.000000 0.000000
vn 1.000000 0.000000 0.000000
vn 1.000000 0.000000 0.000000
vn 1.000000 0.000000 0.000000
vn 1.000000 0.000000 0.000000
vn 1.000000 0.000000 0.000000
vn 1.000000 0.000000 0.000000
vn 1.000000 0.000000 0.000000
vn 1.000000 0.000000 0.000000
vn 1.000000 0.000000 0.000000
vn 1.000000 0.000000 0.000000
vn 1.000000 0.000000 0.000000
vn 1.000000 0.000000 0.000000
vn 1.000000 0.000000 0.000000
vn 1.000000 0.000000 0.000000
vn 1.000000 0.000000 0.000000
vn 1.000000 0.000000 0.000000
vn 1.000000 0.000000 0.000000
vn 1.000000 0.000000 0.000000
vn 0.000000 0.000000 1.000000
vn 0.000000 0.000000 1.000000
vn 0.000000 0.000000 1.000000
vn 0.000000 0.000000 1.000000
vn 1.000000 0.000000 0.000000
vn 1.000000 0.000000 0.000000
vn -1.000000 0.000000 0.000000
vn -1.000000 0.000000 0.000000
vn -1.000000 0.000000 0.000000
vn 1.000000 0.000000 0.000000
vn -1.000000 0.000000 0.000000
vn 1.000000 0.000000 0.000000
vn -1.000000 0.000000 0.000000
vn 1.000000 0.000000 0.000000
vn -1.000000 0.000000 0.000000
vn 1.000000 0.000000 0.000000
vn -1.000000 0.000000 0.000000
vn 1.000000 0.000000 0.000000
vn 0.000000 0.000000 -1.000000
vn 0.000000 0.000000 -1.000000
vn 0.000000 0.000000 -1.000000
vn 0.000000 0.000000 -1.000000
vn -1.000000 0.000000 0.000000
vn -1.000000 0.000000 0.000000
vn 0.000000 0.000000 1.000000
vn 0.000000 0.000000 1.000000
vn 1.000000 0.000000 0.000000
vn 1.000000 0.000000 0.000000
vn -1.000000 0.000000 0.000000
vn -1.000000 0.000000 0.000000
vn 1.000000 0.000000 0.000000
vn -1.000000 0.000000 0.000000
vn 1.000000 0.000000 0.000000
vn -1.000000 0.000000 0.000000
vn 1.000000 0.000000 0.000000
vn -1.000000 0.000000 0.000000
vn 1.000000 0.000000 0.000000
vn -1.000000 0.000000 0.000000
vn 1.000000 0.000000 0.000000
vn 0.000000 0.000000 -1.000000
vn 0.000000 0.000000 -1.000000
vn -1.000000 0.000000 0.000000
f 42/1/1 43/2/2 44/3/3 45/4/4
f 45/4/4 44/3/3 46/5/5 47/6/6
f 47/6/6 46/5/5 48/7/7 49/8/8
f 49/8/8 48/7/7 50/9/9 51/10/10
f 51/10/10 50/9/9 52/11/11 53/12/12
f 53/12/12 52/11/11 54/13/13 55/14/14
f 63/15/15 16/16/16 18/17/17 17/18/18
f 17/18/18 18/17/17 20/19/19 19/20/20
f 19/20/20 20/19/19 22/21/21 21/22/22
f 21/22/22 22/21/21 24/23/23 23/24/24
f 23/24/24 24/23/23 26/25/25 25/26/26
f 25/26/26 26/25/25 27/27/27 66/28/28
f 11/29/29 61/30/30 62/31/31 17/18/32
f 58/32/33 3/33/34 25/26/35 65/34/36
f 3/33/37 5/35/38 23/24/39 25/26/40
f 5/35/38 7/36/41 21/22/42 23/24/43
f 7/36/41 9/37/44 19/20/45 21/22/46
f 9/37/44 11/29/47 17/18/48 19/20/49
f 60/38/50 14/39/51 16/40/52 15/41/53
f 2/42/54 57/43/55 64/44/56 27/45/57
f 14/46/58 12/47/59 18/17/60 16/16/61
f 12/47/59 10/48/62 20/19/63 18/17/64
f 10/48/62 8/49/65 22/21/66 20/19/67
f 8/49/65 6/50/68 24/23/69 22/21/70
f 6/50/68 4/51/71 26/25/72 24/23/73
f 4/51/71 2/52/74 27/27/75 26/25/76
f 56/53/77 2/54/78 29/55/79 28/56/80
f 2/52/74 4/51/71 30/57/81 29/58/82
f 3/33/37 1/59/83 28/60/84 31/61/85
f 4/51/71 6/50/68 32/62/86 30/57/81
f 5/35/38 3/33/37 31/61/85 33/63/87
f 6/50/68 8/49/65 34/64/88 32/62/86
f 7/36/41 5/35/38 33/63/87 35/65/89
f 8/49/65 10/48/62 36/66/90 34/64/88
f 9/37/44 7/36/41 35/65/89 37/67/91
f 10/48/62 12/47/59 38/68/92 36/66/90
f 11/29/47 9/37/44 37/67/91 39/69/93
f 12/47/59 14/46/58 40/70/94 38/68/92
f 14/71/95 13/72/96 41/73/97 40/74/98
f 59/75/99 11/29/47 39/69/93 41/76/100
f 28/56/80 29/55/79 43/77/101 42/78/102
f 29/58/82 30/57/81 44/79/103 43/80/104
f 31/61/85 28/60/84 42/81/105 45/82/106
f 30/57/81 32/62/86 46/83/107 44/79/103
f 33/63/87 31/61/85 45/82/106 47/84/108
f 32/62/86 34/64/88 48/85/109 46/83/107
f 35/65/89 33/63/87 47/84/108 49/86/110
f 34/64/88 36/66/90 50/87/111 48/85/109
f 37/67/91 35/65/89 49/86/110 51/88/112
f 36/66/90 38/68/92 52/89/113 50/87/111
f 39/69/93 37/67/91 51/88/112 53/90/114
f 38/68/92 40/70/94 54/91/115 52/89/113
f 40/74/98 41/73/97 55/92/116 54/93/117
f 41/76/100 39/69/93 53/90/114 55/94/118
