# This file uses centimeters as units for non-parametric coordinates.

v 66.500000 1.000000 54.000000
v 67.500000 1.000000 54.000000
v 66.500000 1.000000 53.000000
v 67.500000 1.000000 53.000000
v 66.500000 1.000000 52.000000
v 67.500000 1.000000 52.000000
v 66.500000 1.000000 51.000000
v 67.500000 1.000000 51.000000
v 66.500000 1.000000 50.000000
v 67.500000 1.000000 50.000000
v 66.500000 1.000000 49.000000
v 67.500000 1.000000 49.000000
v 66.500000 1.000000 48.000000
v 67.500000 1.000000 48.000000
v 66.500000 0.000000 48.000000
v 67.500000 0.000000 48.000000
v 66.500000 0.000000 49.000000
v 67.500000 0.000000 49.000000
v 66.500000 0.000000 50.000000
v 67.500000 0.000000 50.000000
v 66.500000 0.000000 51.000000
v 67.500000 0.000000 51.000000
v 66.500000 0.000000 52.000000
v 67.500000 0.000000 52.000000
v 66.500000 0.000000 53.000000
v 67.500000 0.000000 53.000000
v 66.500000 0.000000 54.000000
v 67.500000 0.000000 54.000000
v 66.500000 2.000000 54.000000
v 67.500000 2.000000 54.000000
v 67.500000 2.000000 53.000000
v 66.500000 2.000000 53.000000
v 67.500000 2.000000 52.000000
v 66.500000 2.000000 52.000000
v 67.500000 2.000000 51.000000
v 66.500000 2.000000 51.000000
v 67.500000 2.000000 50.000000
v 66.500000 2.000000 50.000000
v 67.500000 2.000000 49.000000
v 66.500000 2.000000 49.000000
v 67.500000 2.000000 48.000000
v 66.500000 2.000000 48.000000
v 66.500000 3.000000 54.000000
v 67.500000 3.000000 54.000000
v 67.500000 3.000000 53.000000
v 66.500000 3.000000 53.000000
v 67.500000 3.000000 52.000000
v 66.500000 3.000000 52.000000
v 67.500000 3.000000 51.000000
v 66.500000 3.000000 51.000000
v 67.500000 3.000000 50.000000
v 66.500000 3.000000 50.000000
v 67.500000 3.000000 49.000000
v 66.500000 3.000000 49.000000
v 67.500000 3.000000 48.000000
v 66.500000 3.000000 48.000000
vt 0.762188 1.289024
vt 0.762188 1.302063
vt 0.749150 1.302063
vt 0.749150 1.289024
vt 0.736113 1.302063
vt 0.736113 1.289024
vt 0.723076 1.302063
vt 0.723076 1.289024
vt 0.710038 1.302063
vt 0.710038 1.289024
vt 0.697001 1.302063
vt 0.697001 1.289024
vt 0.683964 1.302063
vt 0.683964 1.289024
vt 0.683601 1.123053
vt 0.683602 1.110014
vt 0.696645 1.110014
vt 0.696645 1.123053
vt 0.709689 1.110014
vt 0.709689 1.123054
vt 0.722732 1.110014
vt 0.722732 1.123054
vt 0.735776 1.110014
vt 0.735776 1.123054
vt 0.748819 1.110014
vt 0.748819 1.123055
vt 0.761863 1.110014
vt 0.761863 1.123055
vt 0.759885 1.239736
vt 0.747319 1.239736
vt 0.747319 1.227170
vt 0.759885 1.227170
vt 0.761862 1.136099
vt 0.748819 1.136098
vt 0.735775 1.136098
vt 0.722732 1.136097
vt 0.709688 1.136097
vt 0.696644 1.136096
vt 0.683601 1.136096
vt 0.689294 1.259107
vt 0.701860 1.259107
vt 0.701860 1.271672
vt 0.689294 1.271672
vt 0.683602 1.096971
vt 0.696645 1.096971
vt 0.709689 1.096971
vt 0.722732 1.096971
vt 0.735776 1.096971
vt 0.748819 1.096971
vt 0.761863 1.096971
vt 0.759885 1.252302
vt 0.747319 1.252302
vt 0.748819 1.083927
vt 0.761863 1.083927
vt 0.761862 1.149142
vt 0.748818 1.149142
vt 0.735776 1.083927
vt 0.735775 1.149141
vt 0.722732 1.083927
vt 0.722731 1.149141
vt 0.709689 1.083927
vt 0.709688 1.149140
vt 0.696645 1.083927
vt 0.696644 1.149140
vt 0.683602 1.083927
vt 0.689294 1.246541
vt 0.701860 1.246541
vt 0.683601 1.149140
vt 0.759885 1.264867
vt 0.747319 1.264867
vt 0.748819 1.070884
vt 0.761863 1.070884
vt 0.761861 1.162186
vt 0.748818 1.162185
vt 0.735776 1.070884
vt 0.735774 1.162185
vt 0.722732 1.070884
vt 0.722731 1.162184
vt 0.709689 1.070884
vt 0.709687 1.162184
vt 0.696645 1.070884
vt 0.696644 1.162184
vt 0.683602 1.070884
vt 0.689294 1.233975
vt 0.701860 1.233975
vt 0.683600 1.162183
vn 0.000000 1.000000 0.000000
vn 0.000000 1.000000 0.000000
vn 0.000000 1.000000 0.000000
vn 0.000000 1.000000 0.000000
vn 0.000000 1.000000 0.000000
vn 0.000000 1.000000 0.000000
vn 0.000000 1.000000 0.000000
vn 0.000000 1.000000 0.000000
vn 0.000000 1.000000 0.000000
vn 0.000000 1.000000 0.000000
vn 0.000000 1.000000 0.000000
vn 0.000000 1.000000 0.000000
vn 0.000000 1.000000 0.000000
vn 0.000000 1.000000 0.000000
vn 0.000000 -1.000000 0.000000
vn 0.000000 -1.000000 0.000000
vn 0.000000 -1.000000 0.000000
vn 0.000000 -1.000000 0.000000
vn 0.000000 -1.000000 0.000000
vn 0.000000 -1.000000 0.000000
vn 0.000000 -1.000000 0.000000
vn 0.000000 -1.000000 0.000000
vn 0.000000 -1.000000 0.000000
vn 0.000000 -1.000000 0.000000
vn 0.000000 -1.000000 0.000000
vn 0.000000 -1.000000 0.000000
vn 0.000000 -1.000000 0.000000
vn 0.000000 -1.000000 0.000000
vn 0.000000 0.000000 1.000000
vn 0.000000 0.000000 1.000000
vn 0.000000 0.000000 1.000000
vn 0.000000 0.000000 1.000000
vn -1.000000 0.000000 0.000000
vn -1.000000 0.000000 0.000000
vn -1.000000 0.000000 0.000000
vn -1.000000 0.000000 0.000000
vn -1.000000 0.000000 0.000000
vn -1.000000 0.000000 0.000000
vn -1.000000 0.000000 0.000000
vn -1.000000 0.000000 0.000000
vn -1.000000 0.000000 0.000000
vn -1.000000 0.000000 0.000000
vn -1.000000 0.000000 0.000000
vn -1.000000 0.000000 0.000000
vn -1.000000 0.000000 0.000000
vn -1.000000 0.000000 0.000000
vn -1.000000 0.000000 0.000000
vn -1.000000 0.000000 0.000000
vn -1.000000 0.000000 0.000000
vn -1.000000 0.000000 0.000000
vn -1.000000 0.000000 0.000000
vn 0.000000 0.000000 -1.000000
vn 0.000000 0.000000 -1.000000
vn 0.000000 0.000000 -1.000000
vn 0.000000 0.000000 -1.000000
vn 1.000000 0.000000 0.000000
vn 1.000000 0.000000 0.000000
vn 1.000000 0.000000 0.000000
vn 1.000000 0.000000 0.000000
vn 1.000000 0.000000 0.000000
vn 1.000000 0.000000 0.000000
vn 1.000000 0.000000 0.000000
vn 1.000000 0.000000 0.000000
vn 1.000000 0.000000 0.000000
vn 1.000000 0.000000 0.000000
vn 1.000000 0.000000 0.000000
vn 1.000000 0.000000 0.000000
vn 1.000000 0.000000 0.000000
vn 1.000000 0.000000 0.000000
vn 1.000000 0.000000 0.000000
vn 1.000000 0.000000 0.000000
vn 1.000000 0.000000 0.000000
vn 1.000000 0.000000 0.000000
vn 1.000000 0.000000 0.000000
vn 0.000000 0.000000 1.000000
vn 0.000000 0.000000 1.000000
vn 1.000000 0.000000 0.000000
vn 1.000000 0.000000 0.000000
vn -1.000000 0.000000 0.000000
vn -1.000000 0.000000 0.000000
vn 1.000000 0.000000 0.000000
vn -1.000000 0.000000 0.000000
vn 1.000000 0.000000 0.000000
vn -1.000000 0.000000 0.000000
vn 1.000000 0.000000 0.000000
vn -1.000000 0.000000 0.000000
vn 1.000000 0.000000 0.000000
vn -1.000000 0.000000 0.000000
vn 1.000000 0.000000 0.000000
vn 0.000000 0.000000 -1.000000
vn 0.000000 0.000000 -1.000000
vn -1.000000 0.000000 0.000000
vn 0.000000 0.000000 1.000000
vn 0.000000 0.000000 1.000000
vn 1.000000 0.000000 0.000000
vn 1.000000 0.000000 0.000000
vn -1.000000 0.000000 0.000000
vn -1.000000 0.000000 0.000000
vn 1.000000 0.000000 0.000000
vn -1.000000 0.000000 0.000000
vn 1.000000 0.000000 0.000000
vn -1.000000 0.000000 0.000000
vn 1.000000 0.000000 0.000000
vn -1.000000 0.000000 0.000000
vn 1.000000 0.000000 0.000000
vn -1.000000 0.000000 0.000000
vn 1.000000 0.000000 0.000000
vn 0.000000 0.000000 -1.000000
vn 0.000000 0.000000 -1.000000
vn -1.000000 0.000000 0.000000
f 43/1/1 44/2/2 45/3/3 46/4/4
f 46/4/4 45/3/3 47/5/5 48/6/6
f 48/6/6 47/5/5 49/7/7 50/8/8
f 50/8/8 49/7/7 51/9/9 52/10/10
f 52/10/10 51/9/9 53/11/11 54/12/12
f 54/12/12 53/11/11 55/13/13 56/14/14
f 15/15/15 16/16/16 18/17/17 17/18/18
f 17/18/18 18/17/17 20/19/19 19/20/20
f 19/20/20 20/19/19 22/21/21 21/22/22
f 21/22/22 22/21/21 24/23/23 23/24/24
f 23/24/24 24/23/23 26/25/25 25/26/26
f 25/26/26 26/25/25 28/27/27 27/28/28
f 2/29/29 1/30/30 27/31/31 28/32/32
f 1/33/33 3/34/34 25/26/35 27/28/36
f 3/34/34 5/35/37 23/24/38 25/26/39
f 5/35/37 7/36/40 21/22/41 23/24/42
f 7/36/40 9/37/43 19/20/44 21/22/45
f 9/37/43 11/38/46 17/18/47 19/20/48
f 11/38/46 13/39/49 15/15/50 17/18/51
f 13/40/52 14/41/53 16/42/54 15/43/55
f 14/44/56 12/45/57 18/17/58 16/16/59
f 12/45/57 10/46/60 20/19/61 18/17/62
f 10/46/60 8/47/63 22/21/64 20/19/65
f 8/47/63 6/48/66 24/23/67 22/21/68
f 6/48/66 4/49/69 26/25/70 24/23/71
f 4/49/69 2/50/72 28/27/73 26/25/74
f 1/30/30 2/29/29 30/51/75 29/52/76
f 2/50/72 4/49/69 31/53/77 30/54/78
f 3/34/34 1/33/33 29/55/79 32/56/80
f 4/49/69 6/48/66 33/57/81 31/53/77
f 5/35/37 3/34/34 32/56/80 34/58/82
f 6/48/66 8/47/63 35/59/83 33/57/81
f 7/36/40 5/35/37 34/58/82 36/60/84
f 8/47/63 10/46/60 37/61/85 35/59/83
f 9/37/43 7/36/40 36/60/84 38/62/86
f 10/46/60 12/45/57 39/63/87 37/61/85
f 11/38/46 9/37/43 38/62/86 40/64/88
f 12/45/57 14/44/56 41/65/89 39/63/87
f 14/41/53 13/40/52 42/66/90 41/67/91
f 13/39/49 11/38/46 40/64/88 42/68/92
f 29/52/76 30/51/75 44/69/93 43/70/94
f 30/54/78 31/53/77 45/71/95 44/72/96
f 32/56/80 29/55/79 43/73/97 46/74/98
f 31/53/77 33/57/81 47/75/99 45/71/95
f 34/58/82 32/56/80 46/74/98 48/76/100
f 33/57/81 35/59/83 49/77/101 47/75/99
f 36/60/84 34/58/82 48/76/100 50/78/102
f 35/59/83 37/61/85 51/79/103 49/77/101
f 38/62/86 36/60/84 50/78/102 52/80/104
f 37/61/85 39/63/87 53/81/105 51/79/103
f 40/64/88 38/62/86 52/80/104 54/82/106
f 39/63/87 41/65/89 55/83/107 53/81/105
f 41/67/91 42/66/90 56/84/108 55/85/109
f 42/68/92 40/64/88 54/82/106 56/86/110
