# This file uses centimeters as units for non-parametric coordinates.

v 70.500000 0.500000 24.000000
v 71.500000 0.500000 24.000000
v 72.500000 0.500000 24.000000
v 70.500000 0.500000 23.000000
v 71.500000 0.500000 23.000000
v 72.500000 0.500000 23.000000
v 70.500000 -0.500000 23.000000
v 71.500000 -0.500000 23.000000
v 72.500000 -0.500000 23.000000
v 70.500000 -0.500000 24.000000
v 71.500000 -0.500000 24.000000
v 72.500000 -0.500000 24.000000
vt 0.370535 1.341180
vt 0.370535 1.354220
vt 0.357498 1.354220
vt 0.357498 1.341180
vt 0.370535 1.367259
vt 0.357498 1.367259
vt 0.357515 1.071056
vt 0.357515 1.058016
vt 0.370558 1.058016
vt 0.370558 1.071056
vt 0.357515 1.044977
vt 0.370558 1.044977
vt 0.372465 1.470556
vt 0.372465 1.483122
vt 0.359899 1.483122
vt 0.359899 1.470556
vt 0.370558 1.084099
vt 0.357515 1.084099
vt 0.356744 1.415070
vt 0.356744 1.402505
vt 0.369310 1.402505
vt 0.369310 1.415070
vt 0.356744 1.389939
vt 0.369310 1.389939
vt 0.357515 1.031934
vt 0.370558 1.031934
vt 0.372465 1.457990
vt 0.359899 1.457990
vn 0.000000 1.000000 0.000000
vn 0.000000 1.000000 0.000000
vn 0.000000 1.000000 0.000000
vn 0.000000 1.000000 0.000000
vn 0.000000 1.000000 0.000000
vn 0.000000 1.000000 0.000000
vn 0.000000 -1.000000 0.000000
vn 0.000000 -1.000000 0.000000
vn 0.000000 -1.000000 0.000000
vn 0.000000 -1.000000 0.000000
vn 0.000000 -1.000000 0.000000
vn 0.000000 -1.000000 0.000000
vn 0.000000 0.000000 1.000000
vn 0.000000 0.000000 1.000000
vn 0.000000 0.000000 1.000000
vn 0.000000 0.000000 1.000000
vn -1.000000 0.000000 0.000000
vn -1.000000 0.000000 0.000000
vn -1.000000 0.000000 0.000000
vn -1.000000 0.000000 0.000000
vn 0.000000 0.000000 -1.000000
vn 0.000000 0.000000 -1.000000
vn 0.000000 0.000000 -1.000000
vn 0.000000 0.000000 -1.000000
vn 0.000000 0.000000 -1.000000
vn 0.000000 0.000000 -1.000000
vn 0.000000 0.000000 -1.000000
vn 0.000000 0.000000 -1.000000
vn 1.000000 0.000000 0.000000
vn 1.000000 0.000000 0.000000
vn 1.000000 0.000000 0.000000
vn 1.000000 0.000000 0.000000
vn 0.000000 0.000000 1.000000
vn 0.000000 0.000000 1.000000
vn 0.000000 0.000000 1.000000
vn 0.000000 0.000000 1.000000
f 1/1/1 2/2/2 5/3/3 4/4/4
f 2/2/2 3/5/5 6/6/6 5/3/3
f 7/7/7 8/8/8 11/9/9 10/10/10
f 8/8/8 9/11/11 12/12/12 11/9/9
f 2/13/13 1/14/14 10/15/15 11/16/16
f 1/17/17 4/18/18 7/7/19 10/10/20
f 4/19/21 5/20/22 8/21/23 7/22/24
f 5/20/25 6/23/26 9/24/27 8/21/28
f 6/25/29 3/26/30 12/12/31 9/11/32
f 3/27/33 2/13/34 11/16/35 12/28/36
