# This file uses centimeters as units for non-parametric coordinates.

v 68.500000 1.500000 47.000000
v 69.500000 1.500000 47.000000
v 68.500000 1.500000 46.000000
v 69.500000 1.500000 46.000000
v 68.500000 1.500000 45.000000
v 69.500000 1.500000 45.000000
v 68.500000 1.500000 44.000000
v 69.500000 1.500000 44.000000
v 68.500000 0.500000 44.000000
v 69.500000 0.500000 44.000000
v 68.500000 0.500000 45.000000
v 69.500000 0.500000 45.000000
v 68.500000 0.500000 46.000000
v 69.500000 0.500000 46.000000
v 68.500000 0.500000 47.000000
v 69.500000 0.500000 47.000000
vt 0.670606 1.315102
vt 0.670606 1.328142
vt 0.657569 1.328142
vt 0.657569 1.315102
vt 0.644531 1.328142
vt 0.644531 1.315102
vt 0.631494 1.328142
vt 0.631494 1.315102
vt 0.631428 1.096815
vt 0.631428 1.083776
vt 0.644471 1.083775
vt 0.644471 1.096814
vt 0.657515 1.083775
vt 0.657515 1.096814
vt 0.670558 1.083774
vt 0.670558 1.096813
vt 0.665879 1.301098
vt 0.653313 1.301098
vt 0.653313 1.288532
vt 0.665879 1.288532
vt 0.670559 1.109856
vt 0.657516 1.109857
vt 0.644472 1.109858
vt 0.631429 1.109859
vt 0.633851 1.356583
vt 0.646416 1.356583
vt 0.646416 1.369149
vt 0.633851 1.369149
vt 0.631427 1.070733
vt 0.644470 1.070732
vt 0.657513 1.070731
vt 0.670557 1.070730
vn 0.000000 1.000000 0.000000
vn 0.000000 1.000000 0.000000
vn 0.000000 1.000000 0.000000
vn 0.000000 1.000000 0.000000
vn 0.000000 1.000000 0.000000
vn 0.000000 1.000000 0.000000
vn 0.000000 1.000000 0.000000
vn 0.000000 1.000000 0.000000
vn 0.000000 -1.000000 0.000000
vn 0.000000 -1.000000 0.000000
vn 0.000000 -1.000000 0.000000
vn 0.000000 -1.000000 0.000000
vn 0.000000 -1.000000 0.000000
vn 0.000000 -1.000000 0.000000
vn 0.000000 -1.000000 0.000000
vn 0.000000 -1.000000 0.000000
vn 0.000000 0.000000 1.000000
vn 0.000000 0.000000 1.000000
vn 0.000000 0.000000 1.000000
vn 0.000000 0.000000 1.000000
vn -1.000000 0.000000 0.000000
vn -1.000000 0.000000 0.000000
vn -1.000000 0.000000 0.000000
vn -1.000000 0.000000 0.000000
vn -1.000000 0.000000 0.000000
vn -1.000000 0.000000 0.000000
vn -1.000000 0.000000 0.000000
vn -1.000000 0.000000 0.000000
vn -1.000000 0.000000 0.000000
vn -1.000000 0.000000 0.000000
vn -1.000000 0.000000 0.000000
vn -1.000000 0.000000 0.000000
vn 0.000000 0.000000 -1.000000
vn 0.000000 0.000000 -1.000000
vn 0.000000 0.000000 -1.000000
vn 0.000000 0.000000 -1.000000
vn 1.000000 0.000000 0.000000
vn 1.000000 0.000000 0.000000
vn 1.000000 0.000000 0.000000
vn 1.000000 0.000000 0.000000
vn 1.000000 0.000000 0.000000
vn 1.000000 0.000000 0.000000
vn 1.000000 0.000000 0.000000
vn 1.000000 0.000000 0.000000
vn 1.000000 0.000000 0.000000
vn 1.000000 0.000000 0.000000
vn 1.000000 0.000000 0.000000
vn 1.000000 0.000000 0.000000
f 1/1/1 2/2/2 4/3/3 3/4/4
f 3/4/4 4/3/3 6/5/5 5/6/6
f 5/6/6 6/5/5 8/7/7 7/8/8
f 9/9/9 10/10/10 12/11/11 11/12/12
f 11/12/12 12/11/11 14/13/13 13/14/14
f 13/14/14 14/13/13 16/15/15 15/16/16
f 2/17/17 1/18/18 15/19/19 16/20/20
f 1/21/21 3/22/22 13/14/23 15/16/24
f 3/22/25 5/23/26 11/12/27 13/14/28
f 5/23/29 7/24/30 9/9/31 11/12/32
f 7/25/33 8/26/34 10/27/35 9/28/36
f 8/29/37 6/30/38 12/11/39 10/10/40
f 6/30/41 4/31/42 14/13/43 12/11/44
f 4/31/45 2/32/46 16/15/47 14/13/48
